<?xml version="1.0" standalone="no"?><!DOCTYPE svg PUBLIC "-//W3C//DTD SVG 1.1//EN" "http://www.w3.org/Graphics/SVG/1.1/DTD/svg11.dtd"><svg t="1501076630468" class="icon" style="" viewBox="0 0 1024 1024" version="1.1" xmlns="http://www.w3.org/2000/svg" p-id="4805" xmlns:xlink="http://www.w3.org/1999/xlink" width="64" height="64"><defs><style type="text/css"></style></defs><path d="M512 998.4c-29.866667 0-59.733333-12.8-81.066667-34.133333l-315.733333-315.733334c-123.733333-123.733333-128-320-12.8-439.466666 59.733333-59.733333 136.533333-93.866667 221.866667-98.133334C388.266667 106.666667 456.533333 128 512 170.666667c55.466667-42.666667 123.733333-64 192-64 85.333333 0 162.133333 34.133333 221.866667 98.133333 115.2 119.466667 106.666667 320-12.8 439.466667L597.333333 960c-25.6 25.6-55.466667 38.4-85.333333 38.4zM324.266667 192c-4.266667 0-4.266667 0 0 0-64 0-119.466667 25.6-162.133334 68.266667-81.066667 85.333333-76.8 230.4 12.8 320l315.733334 315.733333c12.8 12.8 29.866667 12.8 42.666666 0l315.733334-315.733333c89.6-89.6 93.866667-234.666667 12.8-320-42.666667-42.666667-98.133333-68.266667-157.866667-68.266667h-4.266667c-59.733333 0-115.2 21.333333-157.866666 64l-29.866667 29.866667-34.133333-29.866667c-38.4-38.4-93.866667-64-153.6-64z" fill="#777777" p-id="4806"></path></svg>