<?xml version="1.0" standalone="no"?><!DOCTYPE svg PUBLIC "-//W3C//DTD SVG 1.1//EN" "http://www.w3.org/Graphics/SVG/1.1/DTD/svg11.dtd"><svg t="1501075930507" class="icon" style="" viewBox="0 0 1024 1024" version="1.1" xmlns="http://www.w3.org/2000/svg" p-id="2465" xmlns:xlink="http://www.w3.org/1999/xlink" width="64" height="64"><defs><style type="text/css"></style></defs><path d="M684.5 512H573.1V389.8c0-11.2-9.1-20.4-20.4-20.4h-81.5c-11.3 0-20.4 9.1-20.4 20.4v122.4l-112.4 0.6c-4 0-7.1 2.3-8.5 5.5 0 0.1-0.1 0.1-0.1 0.2-0.3 0.6-0.3 1.3-0.4 2-0.1 0.6-0.3 1.2-0.2 1.8 0 0.1-0.1 0.3-0.1 0.4 0 0.4 0.2 0.7 0.3 1.1 0.2 0.8 0.3 1.6 0.7 2.4 0.2 0.4 0.4 0.7 0.6 1 0.3 0.6 0.6 1.2 1 1.7l168.2 188c0.4 0.4 0.8 0.6 1.2 1 0.2 0.2 0.3 0.5 0.6 0.7 0.2 0.2 0.5 0.2 0.8 0.4 0.7 0.4 1.4 0.7 2.1 1 0.2 0.1 0.5 0.2 0.7 0.2 2.9 0.9 6 0.6 8.3-1.3 0.5-0.4 0.8-1.1 1.2-1.6 0.3-0.2 0.6-0.4 0.9-0.7l175.2-187.8c0.5-0.6 0.8-1.3 1.2-1.9 0.2-0.3 0.4-0.5 0.5-0.9 0.4-0.8 0.6-1.6 0.7-2.3 0.1-0.4 0.3-0.6 0.3-1v-0.7-0.3c0.6-5.4-3.6-9.7-9.1-9.7zM471.3 349.1h81.5c11.3 0 20.4-9.1 20.4-20.4v-20.4c0-11.2-9.1-20.4-20.4-20.4h-81.5c-11.3 0-20.4 9.1-20.4 20.4v20.4c0 11.3 9.1 20.4 20.4 20.4zM512 64C264.6 64 64 264.6 64 512s200.6 448 448 448 448-200.6 448-448S759.4 64 512 64z m0 814.6c-202.4 0-366.5-164.1-366.5-366.6 0-202.4 164.1-366.5 366.5-366.5S878.5 309.6 878.5 512 714.4 878.6 512 878.6z" p-id="2466" fill="#777777"></path></svg>