<?xml version="1.0" standalone="no"?><!DOCTYPE svg PUBLIC "-//W3C//DTD SVG 1.1//EN" "http://www.w3.org/Graphics/SVG/1.1/DTD/svg11.dtd"><svg t="1501077491578" class="icon" style="" viewBox="0 0 1024 1024" version="1.1" xmlns="http://www.w3.org/2000/svg" p-id="8494" xmlns:xlink="http://www.w3.org/1999/xlink" width="64" height="64"><defs><style type="text/css"></style></defs><path d="M63.804676 512c0 247.279896 200.487174 447.766047 447.766047 447.766047 247.27785 0 447.765023-200.48615 447.765023-447.766047 0-247.27785-200.487174-447.765023-447.765023-447.765023C264.290827 64.233953 63.804676 264.721127 63.804676 512zM372.79096 729.571271l217.572294-217.572294L372.76333 294.427706c-10.774391-10.774391-10.649548-28.377304 0.293689-39.306214 10.94119-10.927887 28.515451-11.06808 39.304168-0.293689l233.510288 233.524614c1.511423 1.006933 2.923586 2.155083 4.239558 3.470031 5.610788 5.597485 8.339946 12.9438 8.255011 20.218484 0.056282 7.249101-2.686179 14.58109-8.255011 20.12127-1.314948 1.343601-2.743484 2.491751-4.239558 3.472078L412.376537 769.141498c-10.804067 10.788717-28.377304 10.649548-39.304168-0.277316C362.10048 757.934249 362.002242 740.359988 372.79096 729.571271z" p-id="8495" fill="#777777"></path></svg>