<?xml version="1.0" standalone="no"?><!DOCTYPE svg PUBLIC "-//W3C//DTD SVG 1.1//EN" "http://www.w3.org/Graphics/SVG/1.1/DTD/svg11.dtd"><svg class="icon" width="32px" height="32.00px" viewBox="0 0 1024 1024" version="1.1" xmlns="http://www.w3.org/2000/svg"><path fill="#ffffff" d="M246.148 487.146l473.689-473.689c7.581-7.581 18.053-12.269 29.621-12.269 23.135 0 41.89 18.755 41.89 41.89 0 11.568-4.689 22.040-12.269 29.621l-448.846 448.846 434.434 434.514c6.915 7.152 11.176 16.908 11.176 27.658 0 21.988-17.825 39.813-39.813 39.813-10.751 0-20.506-4.261-27.669-11.186l-450.428-450.428c-5.447-5.544-9.262-12.708-10.658-20.703 0.864 5.573-0.33 6.291-1.127 5.097-7.558-7.576-12.232-18.032-12.232-29.581 0-11.548 4.674-22.005 12.233-29.581z"  /></svg>