<?xml version="1.0" standalone="no"?><!DOCTYPE svg PUBLIC "-//W3C//DTD SVG 1.1//EN" "http://www.w3.org/Graphics/SVG/1.1/DTD/svg11.dtd"><svg class="icon" width="32px" height="32.00px" viewBox="0 0 1024 1024" version="1.1" xmlns="http://www.w3.org/2000/svg"><path fill="#999" d="M467.968 746.496c-151.04 0-273.92-122.88-273.92-273.92 0-151.04 122.88-273.92 273.92-273.92s273.92 122.88 273.92 273.92C741.376 623.616 619.008 746.496 467.968 746.496M467.968 266.752c-113.664 0-206.336 92.672-206.336 206.336 0 113.664 92.672 206.336 206.336 206.336s206.336-92.672 206.336-206.336C674.304 358.912 581.632 266.752 467.968 266.752M787.456 834.048c-10.752 0-20.992-4.096-29.184-12.288l-142.848-142.848c-16.384-16.384-16.384-42.496 0-58.88 16.384-16.384 42.496-16.384 58.88 0l142.848 142.848c16.384 16.384 16.384 42.496 0 58.88C808.96 829.952 798.208 834.048 787.456 834.048" /></svg>