<?xml version="1.0" standalone="no"?><!DOCTYPE svg PUBLIC "-//W3C//DTD SVG 1.1//EN" "http://www.w3.org/Graphics/SVG/1.1/DTD/svg11.dtd"><svg class="icon" width="32px" height="32.00px" viewBox="0 0 1024 1024" version="1.1" xmlns="http://www.w3.org/2000/svg"><path fill="#333" d="M558.5344 500.48l329.37216-329.37216c12.49664-12.49664 12.49664-32.75776 0-45.2544-12.49792-12.49664-32.75776-12.49664-45.2544 0L513.27872 455.22432 183.90656 125.85216c-12.49792-12.49664-32.75776-12.49664-45.2544 0s-12.49664 32.75776 0 45.2544l329.37216 329.37216L138.65216 829.85216c-12.49664 12.49664-12.49664 32.75776 0 45.2544 6.24896 6.24896 14.43712 9.37216 22.62784 9.37216s16.37888-3.12448 22.62784-9.37216L513.28 545.7344l329.37216 329.37216c6.24896 6.24896 14.43712 9.37216 22.62784 9.37216s16.37888-3.12448 22.62784-9.37216c12.49664-12.49664 12.49664-32.75776 0-45.2544L558.5344 500.48z" /></svg>