<?xml version="1.0" standalone="no"?><!DOCTYPE svg PUBLIC "-//W3C//DTD SVG 1.1//EN" "http://www.w3.org/Graphics/SVG/1.1/DTD/svg11.dtd"><svg class="icon" width="32px" height="32.00px" viewBox="0 0 1024 1024" version="1.1" xmlns="http://www.w3.org/2000/svg"><path fill="#636363" d="M448 160.0025C448 142.33625 433.663752 128 415.9975 128 398.3375 128 384.00125 142.33625 384.00125 160.0025L384.00125 340.67125 243.39375 200C231.42625 188.0325 212.03125 188.0325 200 200 188.0325 212.03125 188.0325 231.42625 200 243.39375L340.67125 384.00125 160.0025 384.00125C142.33625 384.00125 128 398.3375 128 415.9975 128 433.663748 142.33625 448 160.0025 448L410.368752 448C433.7275 448 448 435.968752 448 410.368748L448 160.0025ZM863.998748 448C881.665 448 896 433.663748 896 415.9975 896 398.3375 881.665 384.00125 863.998748 384.00125L683.33 384.00125 824 243.39375C835.9675 231.42625 835.9675 212.03125 824 200 811.968752 188.0325 792.575 188.0325 780.606252 200L640 340.67125 640 160.0025C640 142.33625 625.663748 128 608.0025 128 590.336248 128 576 142.33625 576 160.0025L576 410.368748C576 435.968752 590.21 448 613.6325 448L863.998748 448ZM160.0025 576C142.33625 576 128 590.336252 128 608.0025 128 625.668752 142.33625 640.005 160.0025 640.005L340.67125 640.005 200 780.606248C188.0325 792.573748 188.0325 811.968752 200 824 212.03125 835.9675 231.42625 835.9675 243.39375 824L384.00125 683.33 384.00125 864.003748C384.00125 881.665 398.3375 896 415.9975 896 433.663752 896 448 881.665 448 864.003748L448 613.6325C448 588.036252 433.7275 576 410.368752 576L160.0025 576ZM576 864.003748C576 881.665 590.336248 896 608.0025 896 625.663748 896 640 881.665 640 864.003748L640 683.33 780.606252 824C792.575 835.9675 811.968752 835.9675 824 824 835.9675 811.968752 835.9675 792.573752 824 780.606252L683.33 640.005 863.998748 640.005C881.665 640.005 896 625.668752 896 608.0025 896 590.336252 881.665 576 863.998748 576L613.6325 576C590.21 576 576 588.036248 576 613.6325L576 864.003748Z" /></svg>