<?xml version="1.0" standalone="no"?><!DOCTYPE svg PUBLIC "-//W3C//DTD SVG 1.1//EN" "http://www.w3.org/Graphics/SVG/1.1/DTD/svg11.dtd"><svg class="icon" width="32px" height="32.00px" viewBox="0 0 1024 1024" version="1.1" xmlns="http://www.w3.org/2000/svg"><path fill="#333" d="M658.832446 682.14122c-5.744636 0-11.485624-2.14314-15.866776-6.523075L349.254558 381.956902c-8.761088-8.759871-8.761088-22.972464 0-31.732336 8.759871-8.758655 22.971248-8.758655 31.731119 0l293.713545 293.663676c8.758655 8.759871 8.758655 22.970032 0 31.729903-4.381152 4.378719-10.125788 6.523075-15.866776 6.523075zM365.118902 682.14122c-5.742204 0-11.485624-2.14314-15.864344-6.523075-8.761088-8.759871-8.761088-22.970032 0-31.729903L642.96567 350.224566c8.761088-8.758655 22.970032-8.758655 31.731119 0 8.758655 8.759871 8.758655 22.972464 0 31.732336L380.985677 675.618145c-4.381152 4.378719-10.123356 6.523075-15.866775 6.523075zM511.999392 948.060844C272.067467 948.060844 76.810643 752.853888 76.810643 512.873311 76.810643 272.938954 272.066251 77.708888 511.999392 77.708888c239.934357 0 435.189965 195.230066 435.189965 435.164423-0.001216 239.980577-195.254392 435.187533-435.189965 435.187533z m0-825.48103c-215.210405 0-390.317823 175.084308-390.317823 390.294714 0 215.207973 175.107418 390.31539 390.317823 390.31539 215.209189 0 390.317823-175.108634 390.317823-390.31539 0-215.210405-175.108634-390.294713-390.317823-390.294714z" /></svg>