<?xml version="1.0" standalone="no"?><!DOCTYPE svg PUBLIC "-//W3C//DTD SVG 1.1//EN" "http://www.w3.org/Graphics/SVG/1.1/DTD/svg11.dtd"><svg class="icon" width="32px" height="31.97px" viewBox="0 0 1025 1024" version="1.1" xmlns="http://www.w3.org/2000/svg"><path fill="#636363" d="M513.588131 93.090909c7.757576 0 27.927273 3.10303 38.787879 24.824243l65.163636 131.878787c29.478788 58.957576 85.333333 99.29697 148.945455 108.606061l144.290909 21.721212c23.272727 3.10303 32.581818 21.721212 35.684848 29.478788 3.10303 7.757576 6.206061 27.927273-10.860606 46.545455L830.097222 558.545455c-46.545455 46.545455-68.266667 111.709091-57.406061 176.872727l24.824243 144.290909c3.10303 17.066667-3.10303 29.478788-9.309091 35.684848-7.757576 9.309091-21.721212 15.515152-34.133334 15.515152-6.206061 0-13.963636-1.551515-20.169697-4.654546L606.67904 857.987879c-27.927273-15.515152-60.509091-23.272727-93.090909-23.272727s-63.612121 7.757576-93.090909 23.272727l-128.775758 68.266666c-6.206061 3.10303-13.963636 4.654545-20.169697 4.654546-12.412121 0-24.824242-6.206061-34.133333-15.515152-6.206061-7.757576-12.412121-18.618182-9.309091-35.684848l24.824242-144.290909c10.860606-65.163636-10.860606-130.327273-57.40606-176.872727l-103.951515-102.4c-17.066667-17.066667-13.963636-37.236364-10.860606-46.545455 3.10303-7.757576 10.860606-26.375758 35.684848-29.478788l144.290909-21.721212c65.163636-9.309091 121.018182-49.648485 148.945455-108.606061l65.163636-131.878787c10.860606-21.721212 31.030303-24.824242 38.787879-24.824243m0-77.575757c-43.442424 0-86.884848 23.272727-108.606061 68.266666l-65.163636 131.878788c-17.066667 35.684848-51.2 60.509091-91.539394 66.715152l-144.290909 21.721212c-99.29697 13.963636-139.636364 138.084848-66.715152 207.90303L141.224495 614.4c27.927273 27.927273 41.890909 68.266667 34.133333 108.606061l-24.824243 144.290909c-13.963636 79.127273 48.09697 142.739394 119.466667 142.739394 18.618182 0 37.236364-4.654545 55.854546-13.963637l128.775757-68.266666c17.066667-9.309091 37.236364-13.963636 55.854546-13.963637 18.618182 0 38.787879 4.654545 55.854545 13.963637l128.775758 68.266666c18.618182 9.309091 37.236364 13.963636 55.854545 13.963637 69.818182 0 133.430303-63.612121 119.466667-142.739394l-24.824243-144.290909c-6.206061-38.787879 6.206061-80.678788 34.133334-108.606061l103.951515-102.4c71.369697-69.818182 32.581818-193.939394-66.715152-207.90303l-139.636363-21.721212c-38.787879-6.206061-72.921212-31.030303-91.539394-66.715152L622.194192 83.781818C600.472979 38.787879 557.030555 15.515152 513.588131 15.515152z" /></svg>