<?xml version="1.0" standalone="no"?><!DOCTYPE svg PUBLIC "-//W3C//DTD SVG 1.1//EN" "http://www.w3.org/Graphics/SVG/1.1/DTD/svg11.dtd"><svg class="icon" width="32px" height="32.00px" viewBox="0 0 1024 1024" version="1.1" xmlns="http://www.w3.org/2000/svg"><path fill="#636363" d="M550.865399 846.515028 467.566294 848.878895C681.325442 734.192547 884.339987 501.470529 884.363636 344.194077 884.376953 255.641484 813.301709 186.181818 720.841551 186.181818 668.295512 186.181818 615.829011 210.39356 581.901861 249.510234L511.577242 330.591759 441.252628 249.510234C407.325479 210.39356 354.858974 186.181818 302.312939 186.181818 210.117383 186.181818 139.636364 255.381364 139.636364 344.208075 139.636364 510.790009 342.896938 749.699002 550.865399 846.515028ZM511.577242 188.515432 569.085584 138.636598C613.371727 109.851539 666.369001 93.090909 720.841551 93.090909 864.07134 93.090909 977.475691 203.580405 977.454545 344.208075 977.420586 570.041046 709.166341 824.898323 511.577242 930.909091 302.312944 833.489813 46.545455 572.975718 46.545455 344.208075 46.545455 203.582462 159.083148 93.090909 302.312939 93.090909 356.785486 93.090909 409.782761 109.851539 454.068903 138.636598L511.577242 188.515432Z" /></svg>