<?xml version="1.0" standalone="no"?><!DOCTYPE svg PUBLIC "-//W3C//DTD SVG 1.1//EN" "http://www.w3.org/Graphics/SVG/1.1/DTD/svg11.dtd"><svg class="icon" width="32px" height="32.00px" viewBox="0 0 1024 1024" version="1.1" xmlns="http://www.w3.org/2000/svg"><path fill="#636363" d="M878.326886 256 597.41856 256C455.525671 256 341.333333 370.69056 341.333333 512.168533L341.333333 639.642795C341.333333 663.404203 361.125 682.666667 384 682.666667 407.564149 682.666667 426.666667 663.108352 426.666667 639.642795L426.666667 512.168533C426.666667 417.62944 502.843162 341.333333 597.41856 341.333333L878.326886 341.333333 780.526946 439.133269C763.847915 455.812267 764.32171 483.328171 780.496777 499.503189 797.159148 516.165632 824.42537 515.914411 840.866726 499.473067L1011.47305 328.866731C1019.8176 320.522155 1023.868766 309.465173 1023.808324 298.472875 1023.871966 287.62752 1019.698756 276.692309 1011.47305 268.466603L840.866726 97.860267C824.187693 81.181269 796.671845 81.65504 780.496777 97.830144 763.834407 114.492501 764.085591 141.75872 780.526946 158.200064L878.326886 256ZM426.666667 128C426.666667 104.435883 408.377551 85.333333 383.541802 85.333333L255.768335 85.333333C114.431501 85.333333 0 199.961003 0 341.361493L0 682.638507C0 823.582379 114.506297 938.666667 255.756973 938.666667L768.243027 938.666667C909.514854 938.666667 1024 823.715499 1024 681.915989L1024 639.624704C1024 616.267776 1004.208333 597.333333 981.333333 597.333333 957.769182 597.333333 938.666667 616.950869 938.666667 639.624704L938.666667 681.915989C938.666667 776.669525 862.303923 853.333333 768.243027 853.333333L255.756973 853.333333C161.835758 853.333333 85.333333 776.655445 85.333333 682.638507L85.333333 341.361493C85.333333 247.038208 161.61092 170.666667 255.768335 170.666667L383.541802 170.666667C407.359007 170.666667 426.666667 150.874965 426.666667 128Z" /></svg>