<?xml version="1.0" standalone="no"?><!DOCTYPE svg PUBLIC "-//W3C//DTD SVG 1.1//EN" "http://www.w3.org/Graphics/SVG/1.1/DTD/svg11.dtd"><svg class="icon" width="32px" height="32.00px" viewBox="0 0 1024 1024" version="1.1" xmlns="http://www.w3.org/2000/svg"><path fill="#636363" d="M940.96896 584.42752c0.15872-30.04928 0.32256-60.08832 0.32256-90.12224v-26.65472h-90.31168v83.85024c0 83.06688 0 166.1184-0.09216 249.18528 0 6.28224-0.10752 12.32384-1.36704 17.41312-6.7072 27.43296-30.2336 33.21344-48.7936 33.2544-181.62688 0.39936-363.24352 0.77824-544.88576 0.77824h-40.30464c-7.05536 0-15.11424-1.95072-21.6064-5.25824-15.57504-7.94112-22.79424-21.2224-22.74816-41.84064L171.52 686.592c0.44032-152.06912 0.9216-309.30432 0.47616-463.96928-0.03072-14.14656 4.992-27.01312 14.19264-36.23424 9.01632-9.0624 21.5296-14.0288 35.91168-14.0288h0.0256c72.99072 0.86016 145.98144 0.72704 219.01824 0.55808 28.94336-0.08192 57.90208-0.13824 86.84032-0.13824h28.20096V83.66592l-16.65536-1.00864a62.44352 62.44352 0 0 0-4.53632-0.21504l-116.48512-0.02048c-67.91168 0-135.808 0.04096-203.71968 0.15872-8.45824 0.02048-17.4336 1.23904-26.73152 3.67104C127.72352 101.888 82.21184 163.24096 82.16576 228.93568a475233.7408 475233.7408 0 0 0 0 579.46624c0.06656 74.5728 58.60352 133.06368 133.30432 133.10976l235.36128 0.08192c114.38592 0 228.74624-0.06144 343.1168-0.2304a154.1888 154.1888 0 0 0 37.22752-4.63872c54.63552-13.8496 112.59392-64.18944 110.69952-141.98784-1.66912-69.9648-1.28512-141.3376-0.90624-210.30912z"  /><path fill="#ffffff" d="M360.90368 572.06784c-11.86816 12.47232-15.28832 28.2624-9.64096 44.41088 5.6064 16.1024 18.29376 26.4704 35.71712 29.23008 2.56 0.37888 5.0688 0.5888 7.4752 0.5888 16.9728 0 28.62592-9.24672 35.9168-16.20992 130.25792-124.42112 260.61312-248.74496 390.97856-373.05344l29.06112-27.69408 0.07168 10.00448c0.13824 30.68928 0.28672 61.34784 0.54784 92.04224 0.24064 27.9552 19.0976 48.26112 46.0032 48.26112h0.03584c26.01472-0.58368 44.19584-20.5312 44.22144-48.45056 0.03072-67.07712 0.0512-134.12352 0-201.18528-0.05632-28.3392-19.07712-47.42144-47.36-47.45728-67.73248-0.12288-135.4496-0.12288-203.17184 0-13.18912 0.01536-25.26208 4.91008-34.00192 13.72672-8.30976 8.43776-12.83072 19.73248-12.69248 31.85152 0.30208 25.11872 19.6608 43.87328 46.0288 44.55936l4.16256 0.04096c2.88256 0 5.7344-0.06144 8.6016-0.11776a343.0912 343.0912 0 0 1 7.94624-0.11264l68.80256-0.03072"  /></svg>