<?xml version="1.0" standalone="no"?><!DOCTYPE svg PUBLIC "-//W3C//DTD SVG 1.1//EN" "http://www.w3.org/Graphics/SVG/1.1/DTD/svg11.dtd"><svg t="1502084892923" class="icon" style="" viewBox="0 0 1024 1024" version="1.1" xmlns="http://www.w3.org/2000/svg" p-id="2800" xmlns:xlink="http://www.w3.org/1999/xlink" width="128" height="128"><defs><style type="text/css"></style></defs><path d="M759.7824 1013.41696c4.5056 0 8.16128-3.70688 8.16128-8.20224v-161.85344c0-109.56288-89.48224-198.4-199.84384-198.4-110.38208 0-199.86432 88.83712-199.86432 198.39488v161.85856c0 4.5312 3.70688 8.20224 8.1664 8.20224h383.38048zM825.00096 542.61248a20.48 20.48 0 0 0 40.94976 0 20.48 20.48 0 0 0-40.94976 0zM931.456 587.64288a24.56576 24.56576 0 0 0 49.1264 0.06144v-0.06144a24.56576 24.56576 0 1 0-49.1264 0zM161.77664 702.27456a16.384 16.384 0 0 0 32.75264 0 16.384 16.384 0 0 0-16.37376-16.384 16.384 16.384 0 0 0-16.37888 16.384z" fill="#FFD500" p-id="2801"></path><path d="M389.10976 808.8832c-23.76704-0.95744-51.86048 1.24928-79.42144 9.40032-15.65184 4.63872-29.93152 10.97728-42.45504 19.31776-37.68832 25.10336-51.77344 50.88768-47.4624 73.14432 0.35328 1.81248 0.82432 3.44064 1.34656 4.85376a24.58112 24.58112 0 0 0 31.63136 14.37696 24.576 24.576 0 0 0 14.36672-31.63136 18.432 18.432 0 0 1 0.88576 3.06176c0.24064 1.22368 0.256 2.18624 0.1792 2.75968 0.03584-0.256 0.28672-0.97792 0.98304-2.25792 3.30752-6.05696 11.2128-14.03392 25.29792-23.41888 8.13056-5.41696 17.96608-9.77408 29.16864-13.09696 21.51936-6.36416 44.63616-8.18176 63.49312-7.41888 1.14176 0.05632 1.85344 0.08704 2.10432 0.11264a24.57088 24.57088 0 0 0 3.61984-49.00352c-0.77312-0.0512-2.04288-0.12288-3.7376-0.19968z m349.7472 49.09056c18.86208-0.75776 41.97376 1.05472 63.49312 7.41888 11.20256 3.31776 21.03296 7.68 29.16864 13.09696 14.07488 9.38496 21.98528 17.36704 25.30304 23.41888 0.6912 1.26976 0.93184 2.00704 0.9728 2.25792-0.08704-0.57344-0.06656-1.536 0.1792-2.75968 0.18432-0.94208 0.47104-1.96608 0.87552-3.06176a24.58112 24.58112 0 0 0 14.38208 31.63136 24.576 24.576 0 0 0 31.63136-14.37696c0.52224-1.408 0.98304-3.03104 1.34656-4.85376 4.31616-22.25664-9.76896-48.04096-47.4624-73.14432-12.52352-8.35584-26.80832-14.67904-42.45504-19.31776-27.56608-8.15104-55.6544-10.35264-79.42144-9.40032-1.70496 0.0768-2.9696 0.14336-3.74272 0.2048a24.56576 24.56576 0 0 0-22.28224 26.65472 24.56064 24.56064 0 0 0 25.89696 22.34368c0.24576-0.02048 0.96256-0.05632 2.11456-0.11264z" fill="#FFD600" p-id="2802"></path><path d="M718.5664 743.21408a8.18176 8.18176 0 0 0 16.37888 0v-107.21792a8.192 8.192 0 0 0-16.37888 0v107.21792z m32.74752-32.15872c-0.01536 4.51072 3.65056 8.192 8.18176 8.192 4.52096 0.01536 8.192-3.65056 8.192-8.17152v-75.07968c0-4.52608-3.67104-8.192-8.192-8.18176a8.17664 8.17664 0 0 0-8.18176 8.18176v75.0592z m32.75776-32.17408c0 4.52096 3.67104 8.18688 8.19712 8.17664 4.52096 0 8.17664-3.6608 8.17664-8.17664v-42.88512a8.18688 8.18688 0 0 0-16.37376 0v42.88512z" fill="#333333" p-id="2803"></path><path d="M538.42432 833.27488c16.37376 16.384 4.09088 106.45504 28.66688 106.45504 24.56576 0 12.27776-90.07104 28.65152-106.45504h-57.3184z" fill="#FFFFFF" p-id="2804"></path><path d="M507.71968 786.20672a26.61376 26.61376 0 0 0-53.22752-0.01536v0.01536a26.60352 26.60352 0 0 0 26.61376 26.5984 26.60864 26.60864 0 0 0 26.61376-26.5984z m-69.60128 0a42.9824 42.9824 0 0 1 42.97728-43.00288c23.73632-0.00512 42.99776 19.23072 42.99776 42.97216v0.03584c0 23.7312-19.26144 42.97728-42.99776 42.96704a43.008 43.008 0 0 1-42.97728-42.97216z m249.74336 0a26.61888 26.61888 0 0 0-53.2224-0.01536v0.01536a26.5984 26.5984 0 0 0 26.60864 26.5984 26.60352 26.60352 0 0 0 26.61376-26.5984z m-69.59616 0a42.98752 42.98752 0 1 1 85.9648 0 42.98752 42.98752 0 0 1-85.9648 0z" fill="#333333" p-id="2805"></path><path d="M238.63808 190.1312l3.61472-1.46944c0.98304 2.41664 8.29952 6.4512 21.94432 12.13952l4.46976 10.98752c8.65792 21.28896 18.8672 53.2992 30.62272 96.02048 11.74528-4.77696 28.16-0.896 49.20832 11.66336l1.52064 3.74784-38.4768 30.464 14.81216 36.43392c1.95584 4.81792-10.20416 13.2864-36.48 25.43616-9.0368-6.20032-16.2048-8.22272-21.504-6.07744l-0.76288-1.87904c-8.81664-21.67808-13.27104-36.10112-13.37344-43.24352l-3.6096 1.47456 5.1712 12.71808-9.09824 3.70688c-33.92512 13.78816-58.56768 16.00512-73.94304 6.64576l-3.6096 1.46944-1.46432-3.62496c-5.8112-14.25408 2.97984-65.98656 26.32704-155.2128 9.344-3.79904 15.60576-12.69248 18.79552-26.6752 10.38336-7.02976 18.9952-11.94496 25.83552-14.72512zM170.1632 377.15456c23.08096-16.68096 33.4336-27.97056 31.03744-33.85344-0.7424-1.82272-0.5632-4.70528 0.53248-8.63232L200.97024 332.8c-20.87424 18.23744-31.03744 28.05248-30.48448 29.39392-1.16224 7.6544-1.26464 12.6464-0.32256 14.96064z m0.3584 6.25664l0.768 1.87392c9.45152-1.04448 17.25952-2.81088 23.43936-5.3248 0.6656-0.27136 6.04672-4.58752 16.11776-12.94848l-0.75776-1.88416c-6.1696 2.51392-10.4704 0.77312-12.9024-5.1968-18.75456 13.24544-27.64288 21.0688-26.66496 23.48032z m7.48032-60.31872l9.10336-3.69664c-0.91136 2.18112-5.1712 7.44448-12.77952 15.81568-1.87904 9.18528-2.32448 14.97088-1.34656 17.38752 22.59968-17.60256 32.9216-28.8256 30.95552-33.64352l0.61952-8.83712-2.85184 3.33824-7.3728 3.00032-0.75776-1.87392c9.05216-3.6864 14.62272-14.42816 16.71168-32.24064l-0.768-1.8688c-20.48512 18.0992-30.45888 28.49792-29.92128 31.2064l-1.59232 11.41248z m4.69504-25.32352l0.76288 1.8944 1.73056-0.70656c23.08608-19.712 32.71168-34.29376 28.87168-43.75552 1.2544-0.50176 1.64864-1.3312 1.17248-2.49344l-1.87392 0.76288c-23.59296 18.46272-33.47456 32.41984-29.63456 41.86624-1.152 0.47616-1.50528 1.27488-1.02912 2.432z m7.65952-32.92672l0.768 1.88416c11.22304-8.832 29.30688-25.39008 54.24128-49.67936l1.74592-0.70656-5.18144-12.71296 0.41472-4.3776-1.87904 0.76288c-29.80352 28.0576-45.18912 44.20096-46.17216 48.41984l-3.93728 16.4096z m57.68192 89.23136l-29.20448 11.87328c-1.152 0.47616-5.5808 3.67104-13.26592 9.61024l0.70656 1.73568 10.0096-1.88928 16.3328-6.63552c9.53344-3.88096 26.1632-16.98816 49.87904-39.31136l-5.17632-12.72832-1.73056 0.71168c-19.64544 14.39232-28.12416 24.85248-25.46688 31.40096 1.01376 2.52416 0.31744 4.25472-2.08384 5.23264z m-35.70176-134.20032l0.70144 1.73056c14.60224-14.3616 22.28736-21.69344 23.05024-22.016l-0.76288-1.8688-7.22944 2.92864c-10.01984 4.08064-15.27808 10.496-15.75936 19.2256z m6.24128 35.69152c13.1328 32.27136 16.39424 57.8304 9.79456 76.69248l-2.81088 24.55552 21.97504-8.93952c-6.13376-25.5744-14.9504-55.95648-26.45504-91.136l-0.76288-1.88416-1.7408 0.71168z m3.12832-7.66976l5.17632 12.7232c11.02848-12.91264 19.91168-20.74112 26.65984-23.4752l-2.944-7.23968-2.0224-9.94816-1.73568 0.69632c-17.34144 14.24384-25.71264 23.31648-25.13408 27.24352z m10.89536 31.77984c19.51744-14.67904 27.48416-26.4448 23.87968-35.31776l-2.23232-5.48864-1.87904 0.75264c-17.48992 16.10752-25.07264 26.98752-22.76352 32.67072l2.9952 7.38304z m1.408 3.46112l2.23744 5.50912 1.87904 10.00448 1.87904-0.768-0.40448 4.38272 5.1712 12.72832 26.5216-23.42912-5.23264-12.86656c-7.63904 8.83712-13.2864 13.98784-16.95232 15.47776l-1.87904 0.768c-0.54272-1.33632 4.98688-8.59136 16.59904-21.73952l-2.52928-11.60704-0.76288-1.87392-26.52672 23.41376z m10.496 36.15744l2.2272 5.504 1.82784 9.86112c19.52256-14.66368 28.73344-23.35744 27.63264-26.05568l-4.46464-10.97728a351.7952 351.7952 0 0 0-27.22304 21.66784z m39.45472 13.76768c-19.36896 15.06816-27.81184 25.63584-25.34912 31.69792l1.2032 7.94112c20.56704-15.4368 30.08512-25.0368 28.55936-28.7744 19.968-18.00704 31.58528-27.67872 34.8672-29.0048l-0.70656-1.75104c-1.50528-2.29376-5.49376-3.54304-11.9552-3.73248l-25.14432 27.24352-1.47456-3.61984z m-22.67136 43.25376l3.70176 9.10336-0.4096 4.37248 1.87392-0.768c19.11296-12.35968 27.99616-20.1984 26.67008-23.46496l-4.47488-10.9824-27.36128 21.73952z m4.7616 17.1008l4.46464 10.97728c20.992-11.3408 30.74048-18.84672 29.25056-22.50752l-3.69664-9.10848c-18.08896 12.96896-28.09856 19.85536-30.01856 20.63872z m19.34848-67.15904l1.408 3.46624c4.05504-1.64864 7.00416-8.46336 8.86272-20.44928l-1.87904 0.768c-2.60608 9.6-5.4016 15.00672-8.39168 16.21504zM640.64 181.98528l3.79904 0.19968c-0.11776 2.52928 4.66432 9.12384 14.3872 19.77344l-0.57856 11.55072c-1.14688 22.4-5.34528 54.8864-12.58496 97.48992 12.35968 0.62464 25.25696 10.83904 38.67136 30.6176l-0.2048 3.95264-46.57152 11.04384-1.95072 38.29248c-0.26112 5.0688-14.50496 7.54176-42.74176 7.42912-5.4272-9.22112-10.91584-13.97248-16.4864-14.24384l0.09728-1.97632c1.16224-22.8096 3.16928-37.38112 6.03648-43.73504l-3.80416-0.19456-0.67584 13.3632-9.56416-0.48128c-35.67616-1.8176-58.37824-10.03008-68.09088-24.64256l-3.80416-0.18432 0.19968-3.79904c0.768-15.0016 29.87008-57.09312 87.33184-126.29504 9.8304 0.49664 19.04128-4.77184 27.62752-15.81568 12.07808-1.93024 21.7088-2.70336 28.90752-2.34496zM500.66432 324.65408l-0.10752 1.97632c8.79104 2.98496 16.42496 4.64896 22.91712 4.97664 0.70144 0.03072 7.23968-1.56672 19.58912-4.80256l0.09728-1.9712c-6.47168-0.32768-9.5488-3.62496-9.23648-9.91232-22.05184 3.96288-33.1264 7.20896-33.25952 9.73312z m2.26816-5.67808c27.2896-5.2224 41.088-10.91072 41.40544-17.09056 0.09216-1.92512 1.43872-4.39296 4.03968-7.40864l0.10752-1.97632c-25.984 7.51616-39.02464 11.9808-39.0912 13.40416-4.17792 6.28736-6.34368 10.64448-6.46144 13.07136z m29.24544-44.52352l9.55904 0.4864c-1.70496 1.54112-7.63392 4.43392-17.81248 8.68864-5.44256 7.3472-8.23296 12.288-8.37632 14.81728 27.24864-6.23104 40.99584-11.88352 41.25184-16.95232l4.1984-7.56224-3.90656 1.78176-7.75168-0.38912 0.10752-1.97632c9.5232 0.48128 18.87744-6.71744 28.06272-21.5808l0.09728-1.98144c-25.57952 7.54176-38.67136 12.6208-39.3216 15.22688l-6.10816 9.44128z m49.09056 56.28416l-30.69952-1.56672c-1.22368-0.06144-6.4512 0.93696-15.69792 3.01056l-0.09728 1.82272 9.62048 2.46784 17.18272 0.8704c10.04032 0.51712 30.12608-4.20864 60.30336-14.15168l0.68096-13.37856-1.83296-0.09216c-23.28576 4.608-35.11296 10.35776-35.46112 17.24416-0.13312 2.64192-1.46944 3.90144-3.99872 3.77344z m-34.49856-76.7232l-0.10752 1.9712 1.82272 0.1024c28.54912-7.89504 43.07456-16.80384 43.5712-26.74176 1.31072 0.07168 2.01728-0.50688 2.06848-1.72544l-1.98144-0.09728c-28.47232 6.57408-42.96192 14.82752-43.46368 24.76032-1.20832-0.06144-1.84832 0.50688-1.90976 1.73056z m49.15712-22.49728c-1.73568 33.9456-9.40032 57.88672-23.0144 71.81824l-12.62592 20.53632 23.10144 1.1776c5.13024-25.1392 9.89696-55.62368 14.24896-91.46368l0.1024-1.97632-1.81248-0.09216z m-28.77952-3.43552l-0.1024 1.96608c13.55776-3.16416 36.37248-10.3424 68.43904-21.50912l1.8176 0.09216 0.68096-13.37344 2.16576-3.70176-1.98144-0.1024c-37.90336 12.49792-58.1632 20.40832-60.77952 23.72608l-10.24 12.9024z m13.80864 144.8448l-0.58368 11.55584c23.22944-1.36192 34.944-3.968 35.13856-7.81824l0.49152-9.5744c-21.34016 3.9936-33.02912 5.93408-35.0464 5.8368z m2.84672-17.0752l-0.4864 9.5744-2.17088 3.70688 1.9712 0.1024c21.9904-3.05664 33.08544-6.2976 33.2544-9.74336l0.5888-11.55584-33.15712 7.91552z m37.888-28.85632c-23.34208 5.3248-35.15904 11.17184-35.47648 17.55648l-2.22208 7.5008c24.54528-5.1456 36.91008-9.7024 37.10976-13.65504 25.06752-7.65952 39.33696-11.41248 42.78272-11.23328l0.09216-1.8176c-0.36864-2.6624-3.38432-5.40672-9.02656-8.23808l-33.4592 13.696 0.19968-3.80928z m-29.17888-28.45184l-0.29184 5.77536-2.46784 9.47712c23.31136-4.91008 35.05152-8.78592 35.18464-11.6224l0.58368-11.5456a342.4 342.4 0 0 0-33.00864 7.91552z m5.64736-36.2752l-0.29184 5.77024-2.46784 9.6256 1.98144 0.1024-2.16576 3.70176-0.68096 13.37344 33.09056-9.74336 0.68608-13.53728c-10.3936 4.65408-17.5104 6.88128-21.36064 6.68672l-1.98144-0.1024c0.08192-1.42336 7.95136-5.53984 23.63904-12.35968l2.54976-11.30496 0.09728-1.9712-33.09568 9.75872z m0.18944-3.65056c23.31136-4.91008 35.2-12.02688 35.68128-21.3504l0.28672-5.77024-1.9712-0.1024c-22.10304 7.00928-33.30048 13.4912-33.59744 19.47136l-0.39936 7.75168z m3.48672-32.59392l-0.68608 13.37856c15.07328-6.85056 26.1632-10.09152 33.2544-9.73312l0.39424-7.59808 2.30912-9.6256-1.81248-0.09728c-21.21216 5.41184-32.36864 9.984-33.4592 13.67552z m3.28192-28.6208l-0.09216 1.82272c18.82624-6.66112 28.64128-9.97376 29.46048-9.93792l0.09216-1.96608-7.58784-0.384c-10.55232-0.54272-17.82272 2.944-21.87264 10.46528z m20.65408 124.17024l-0.18944 3.64032c4.25984 0.22016 9.68704-4.5824 16.2816-14.40768l-1.98144-0.1024c-6.25664 7.40864-10.96704 11.02848-14.11072 10.86976zM391.28576 117.9648c42.96192-8.59136 72.1408-1.6896 87.56224 20.68992 7.7056 15.63136 12.47744 28.01152 14.30016 37.12 9.5232 47.63648-4.72576 86.41024-42.76736 116.352-9.99424 4.3008-18.11456 7.08096-24.39168 8.33024-25.36448 5.07904-50.99008-4.28032-76.88704-28.05248-7.44448-13.75744-12.2624-26.13248-14.45376-37.08928-10.69056-53.45792 1.5872-90.65984 36.8384-111.58528l19.79904-5.76512zM336.00512 215.87456c5.00224-4.38784 9.18528-6.94272 12.54912-7.60832-7.81824 7.808-11.53536 12.60032-11.19232 14.37696-0.28672 4.55168-0.08192 8.56064 0.60928 12.0064l1.72544-0.34816c19.42016-13.16864 28.8-21.4272 28.12416-24.79616l-1.66912-8.33536c-3.2512 3.03616-6.38464 4.85888-9.38496 5.46304l-0.68096-3.45088c8.65792-1.73056 12.25216-9.97888 10.76224-24.77056l-1.59232 0.31744c-18.01728 13.80864-27.74016 23.28576-29.18912 28.45696-0.78848 2.08896-0.79872 4.97664-0.06144 8.68864z m0.10752-17.38752c26.53696-18.07872 38.46656-33.792 35.7888-47.14496-23.80288 19.74784-35.62496 30.25408-35.46624 31.49312-0.75776 7.70048-0.86016 12.90752-0.32256 15.65184z m1.94048-24.80128l0.34304 1.73056c21.72416-17.29536 35.7632-31.13984 42.15296-41.51296 8.2176-1.64864 13.696-6.18496 16.43008-13.63456l-1.71008 0.34816c-29.5168 5.90848-48.59392 23.59808-57.216 53.0688z m1.27488 67.71712c2.01216 4.10624 3.36384 7.87456 4.06016 11.32544 15.17056-12.32384 24.31488-18.7904 27.40736-19.4048l-3.01568-15.11424c-4.49536 0.98816-13.9776 8.7296-28.45184 23.1936z m6.0928 12.5696c1.64864 8.23296 4.21376 12.35456 7.71584 12.38528l22.37952-18.4064c-0.19968-0.96256-1.65376-5.26336-4.37248-12.90752-13.34784 11.86304-21.92384 18.176-25.72288 18.92864z m8.71936 17.41824c4.0192 4.90496 6.8352 7.23456 8.43776 6.99904l3.17952-0.62976c8.82176-8.74496 15.39584-13.55776 19.73248-14.42304-0.66048-3.2768-3.18464-7.40864-7.58784-12.41088-16.10752 12.31872-24.02816 19.1488-23.76192 20.46464z m12.62592 11.39712l0.34304 1.73056c1.9456-0.38912 5.09952 0.67072 9.46688 3.2 15.13472-8.448 22.66112-13.99808 22.58944-16.64-4.87936-1.41824-7.63904-3.75296-8.2944-7.03488-9.3696 4.17792-17.41312 10.42944-24.10496 18.74432z m16.77824 5.33504l0.34816 1.72032 12.01152-0.59904 10.08128-2.01216c1.93536-0.39424 6.62528-3.13344 14.06976-8.20224l-0.34304-1.73056c-5.48352 1.1008-10.96704-0.1024-16.44032-3.6096l-19.72736 14.43328z m5.67296-58.48576l3.6608 18.29888c2.42176 12.1088 10.04544 21.05856 22.88128 26.8544l3.31776-0.65536c19.70176-28.76416 25.8048-61.8752 18.31424-99.34848l-2.01216-10.07104-5.06368-16.36352-4.90496 0.98304c-3.18464 0.64-11.45344-0.01024-24.79104-1.93024-13.44512 25.56928-17.24928 52.98176-11.40224 82.23232z m0.03072-95.68256l0.32256 1.59744c8.72448 1.83808 14.06464 2.56 16.01536 2.176 11.1616-8.48896 17.408-14.97088 18.70848-19.46624l-17.03936 1.60256c-2.304 0.4608-8.30464 5.1712-18.00704 14.09024z m26.06592 0.02048l2.95936-2.39104c0.97792-0.19968 5.01248 2.49856 12.09344 8.06912 8.28928-10.94144 14.64832-16.85504 19.06688-17.73568-0.50176-2.46784-6.51264-3.61984-18.05824-3.42016-10.9568 9.07776-16.31232 14.24896-16.06144 15.47776z m2.11456 149.16096l0.35328 1.73568 3.30752-0.67072c15.90784-3.17952 28.68736-14.45888 38.30272-33.86368-7.58272 8.04864-21.57056 18.97472-41.96352 32.79872z m8.27392-10.33216c30.6688-20.38272 45.02528-35.4304 43.08992-45.14816 1.5616-4.08064 2.16576-7.09632 1.77152-9.04192-28.0832 22.25152-41.27744 37.62688-39.58272 46.10048-1.7664 0.34816-3.5328 3.05152-5.27872 8.0896z m5.32992-129.83808l5.9904 12.72832 1.72544-0.34816c3.44576-4.81792 10.68544-12.06784 21.70368-21.7088l-0.34816-1.72032c-4.38272-4.46976-6.72768-7.48544-7.04-9.07776l-3.30752 0.67072-18.72384 19.456z m6.65088 16.04608l3.41504 8.1408-0.39424 6.96832 3.30752-0.67072c15.60064-14.78144 23.31648-22.71232 23.10144-23.77216l-0.35328-1.73568c-1.54624-7.76704-3.4304-11.43808-5.64736-10.99264-13.84448 14.35136-21.66272 21.7088-23.42912 22.06208z m2.33472 81.28512c22.23104-16.58368 32.85504-27.38176 31.8464-32.42496 1.06496-6.08768 1.39776-10.20928 0.97792-12.32896l-1.59744 0.31744-28.11904 24.79104c-2.304 11.95008-3.33824 18.49856-3.10784 19.64544z m2.0224-59.55072l2.01216 10.0864 8.03328-3.26656c-5.6576 6.64576-8.34048 10.62912-8.0896 11.9552-0.54784 8.75008-0.65536 13.97248-0.31744 15.64672 14.99648-11.45344 24.66304-20.93056 29.05088-28.42624l-2.01216-10.07104c-5.71392 5.92384-10.19392 9.20576-13.47072 9.86112 6.46656-9.46176 11.20256-14.51008 14.21824-15.11424l-3.33824-16.70656c-16.29696 15.0272-24.99072 23.70048-26.0864 26.0352zM431.37536 466.60096l-12.6208-6.72768c4.27008-8.00256 9.66144-14.28992 16.01024-18.67776l8.13568 11.76064c-4.46464 3.08736-8.34048 7.68-11.52512 13.6448zM534.27712 568.28416l-11.22304-8.86272c8.3456-10.57792 19.56352-19.88608 35.2768-29.32736l7.36256 12.26752c-14.18752 8.4992-24.17664 16.75264-31.41632 25.92256z m-130.66752-28.7744l-0.384-13.43488 0.384 7.58784 0.56832-6.93248c15.8464-0.01024 29.52192-0.86528 41.35936-2.74432l2.24768 13.32224c-12.57984 1.9968-27.008 2.2016-42.9056 2.2016h-1.26976z m-29.71136 1.14176c-15.0272-0.57344-29.7984-1.57184-43.904-2.93888l1.39264-14.22848c13.824 1.34656 28.30848 2.304 43.0592 2.87744l-0.54784 14.28992z m-73.08288-6.46144a521.69728 521.69728 0 0 1-43.4176-8.08448l3.2256-13.94176a514.048 514.048 0 0 0 42.24512 7.87968l-2.05312 14.14656z m176.53248-3.6608l-5.26336-13.312c14.62272-5.76512 23.74656-14.01856 26.37312-23.84896l13.81888 3.69152c-2.68288 10.0352-10.91584 23.99232-34.92864 33.46944z m113.4336-1.78176l-6.4768-12.7488 7.16288-3.63008c10.1376-5.11488 20.62336-10.40384 31.21664-16.384l7.03488 12.46208c-10.88 6.13888-21.51424 11.49952-31.79008 16.70144l-7.14752 3.59936z m-361.91232-10.23488a360.13056 360.13056 0 0 1-41.66656-15.43168l5.81632-13.06112a343.94112 343.94112 0 0 0 40.00768 14.79168l-4.15744 13.70112z m426.0864-25.73312l-8.09984-11.79136c12.11392-8.33024 22.76352-17.12128 32.5632-26.86976l10.0864 10.14272c-10.41408 10.368-21.71392 19.6864-34.54976 28.5184z m-494.3104-3.16928c-13.48096-7.75168-25.82016-16.44544-36.67968-25.8304l9.35424-10.82368c10.16832 8.79104 21.76 16.95232 34.45248 24.24832l-7.12704 12.40576z m333.88032-18.72384c-6.28224-10.8032-17.81248-19.4048-29.38368-21.90848l3.0208-13.98272c15.55968 3.36896 30.40256 14.36672 38.72768 28.70784l-12.3648 7.18336z m-391.80288-28.416a176.11264 176.11264 0 0 1-24.7808-37.888l12.89216-6.20032a161.9712 161.9712 0 0 0 22.77376 34.81088l-10.88512 9.27744z m606.592-0.67072l-11.31008-8.74496 2.05824-2.7136c7.68-10.24 14.77632-21.28896 21.07392-32.84992l12.5696 6.8608a287.232 287.232 0 0 1-22.1952 34.56512l-2.19648 2.88256z m37.3248-64.28672l-13.17888-5.56032a280.8576 280.8576 0 0 0 13.5168-40.27392l13.88032 3.51232a295.7056 295.7056 0 0 1-14.21824 42.32192z m-679.3472-1.30048a181.1968 181.1968 0 0 1-6.40512-44.78976l14.30528-0.26624a166.50752 166.50752 0 0 0 5.888 41.24672l-13.78816 3.80928z m699.34592-70.26176l-14.16704-2.02752c1.69984-11.8784 2.56512-23.82336 2.56512-35.50208 0-2.2528-0.04608-4.51072-0.10752-6.7584l14.30528-0.39424a264.2432 264.2432 0 0 1-2.59584 44.68224z m-689.85856-2.7136l-14.18752-1.84832a235.39712 235.39712 0 0 1 10.14784-43.73504l13.57824 4.5056a219.78112 219.78112 0 0 0-9.53856 41.07776z m19.9424-67.34336l-12.99456-5.97504a306.90816 306.90816 0 0 1 21.632-39.02464l11.99104 7.808a293.55008 293.55008 0 0 0-20.62848 37.19168z m655.70304-2.26816a209.49504 209.49504 0 0 0-10.49088-40.75008l13.40928-4.95616a223.3856 223.3856 0 0 1 11.20768 43.52512l-14.12608 2.18112zM133.92384 175.61088l-11.24352-8.84736a362.61888 362.61888 0 0 1 29.60384-33.17248l10.07104 10.14784a349.98272 349.98272 0 0 0-28.43136 31.872z m596.44928-8.2688a199.42912 199.42912 0 0 0-23.80288-34.57536l10.84416-9.30304a210.71872 210.71872 0 0 1 25.5232 37.06368l-12.56448 6.81472zM183.36768 124.47744l-9.24672-10.9056a387.21536 387.21536 0 0 1 35.46624-26.72128l7.93088 11.904a375.936 375.936 0 0 0-34.1504 25.72288z m503.53152-11.73504a235.4432 235.4432 0 0 0-33.95072-25.10848l7.4752-12.19584a249.35424 249.35424 0 0 1 36.00384 26.62912l-9.52832 10.6752z m-445.07648-28.92288l-7.0144-12.46208a392.06912 392.06912 0 0 1 39.84384-19.57376l5.56544 13.17888a379.02848 379.02848 0 0 0-38.39488 18.85696z m386.26304-9.66656a328.91904 328.91904 0 0 0-39.58272-15.7696l4.43904-13.5936a341.87776 341.87776 0 0 1 41.32352 16.45056l-6.17984 12.91264z m-321.2032-19.3024l-4.5568-13.56288a388.18304 388.18304 0 0 1 42.8288-11.68896l2.95936 13.99808a372.61312 372.61312 0 0 0-41.23136 11.25376z m254.20288-4.30592a467.4048 467.4048 0 0 0-42.09152-8.31488l2.14528-14.13632a479.06816 479.06816 0 0 1 43.38688 8.56064l-3.44064 13.89056zM376.21248 38.77376l-1.87904-14.1824a383.45216 383.45216 0 0 1 44.26752-3.2512l0.21504 14.30528a368.25088 368.25088 0 0 0-42.60352 3.12832z m114.32448-0.07168a647.56224 647.56224 0 0 0-42.99776-2.74944l0.44544-14.28992c15.06816 0.46592 29.85984 1.41312 43.95008 2.81088l-1.39776 14.22848zM518.02624 612.54656l-14.26432-1.15712c0.65536-8.0384 2.03264-15.62624 4.096-22.54336l13.71136 4.08064a96.70656 96.70656 0 0 0-3.54304 19.61984z" fill="" p-id="2806"></path></svg>