<?xml version="1.0" standalone="no"?><!DOCTYPE svg PUBLIC "-//W3C//DTD SVG 1.1//EN" "http://www.w3.org/Graphics/SVG/1.1/DTD/svg11.dtd"><svg class="icon" width="32px" height="32.00px" viewBox="0 0 1024 1024" version="1.1" xmlns="http://www.w3.org/2000/svg"><path fill="#000000" d="M81.531 652.392c20.15-5.479 31.814-26.335 26.335-46.484-6.364-22.624-9.367-45.777-9.367-69.462 0-142.813 116.3-258.935 258.935-258.935h153.594v-0.53h245.679v66.812c0 21.387 14.848 29.694 33.228 18.382L950.6 262.489c18.206-11.312 18.382-29.87 0.353-41.712L789.406 116.496c-18.027-11.666-32.699-3.711-32.699 17.852v67.164H405.686v0.53h-48.429c-89.258 0-173.39 34.819-236.49 97.918-63.277 63.277-97.918 147.231-97.918 236.49 0 30.578 4.064 60.624 12.196 89.788 4.595 16.615 19.795 27.573 36.41 27.573 3.358 0 6.717-0.353 10.074-1.414z m916.788-234.721c-4.595-16.615-19.795-27.573-36.41-27.573-3.358 0-6.717 0.53-10.074 1.414-20.15 5.479-31.814 26.335-26.335 46.484 6.364 22.624 9.367 45.777 9.367 69.462 0 142.813-116.3 258.935-258.935 258.935H522.338v0.53H277.012v-66.812c0-21.387-14.848-29.694-33.228-18.382L83.119 781.415c-18.206 11.312-18.382 30.048-0.53 41.712l161.547 104.458c18.027 11.666 32.699 3.711 32.699-17.852v-67.164h351.021v-0.53h48.429c89.258 0 173.39-34.819 236.49-97.918 63.277-63.277 97.918-147.231 97.918-236.49a347.492 347.492 0 0 0-12.372-89.964z" /></svg>