<?xml version="1.0" standalone="no"?><!DOCTYPE svg PUBLIC "-//W3C//DTD SVG 1.1//EN" "http://www.w3.org/Graphics/SVG/1.1/DTD/svg11.dtd"><svg class="icon" width="32px" height="32.00px" viewBox="0 0 1024 1024" version="1.1" xmlns="http://www.w3.org/2000/svg"><path fill="#000000" d="M793.941333 160 230.058667 160C191.36 160 160 191.616 160 230.058667l0 563.84C160 832.64 191.616 864 230.058667 864l563.84 0c38.698667 0 70.058667-31.616 70.058667-70.058667L863.957333 230.058667C864 191.36 832.384 160 793.941333 160zM799.658667 800c0-0.298667-575.658667-0.341333-575.658667-0.341333C224.298667 799.658667 224.341333 224 224.341333 224 224.341333 224.298667 800 224.341333 800 224.341333 799.701333 224.341333 799.658667 800 799.658667 800zM703.658667 681.472l0.341333 0.170667L704 349.653333c-1.152-18.602667-13.952-28.501333-38.357333-29.653333L459.776 320c-12.8 1.152-19.754667 9.301333-20.949333 24.405333 1.152 15.104 8.149333 23.253333 20.949333 24.405333l190.122667 0c3.498667 0 5.248 1.749333 5.248 5.248l0 282.581333 0.469333 0.256-65.792 0c-6.698667 0-17.578667 8.704-18.432 22.656 0.853333 15.104 10.112 23.253333 18.432 24.405333l98.944 0C697.557333 702.890667 702.506667 695.381333 703.658667 681.472zM477.226667 438.613333c-11.648-1.152-18.005333-9.301333-19.2-24.405333 1.152-13.952 7.552-21.504 19.2-22.656l143.018667 0c13.952 1.152 21.504 8.704 22.656 22.656-1.152 15.104-8.149333 23.253333-20.949333 24.405333L477.226667 438.613333zM334.72 367.104C327.893333 365.952 312.704 357.802667 312.021333 342.656 312.704 328.704 325.418667 321.152 332.288 320l56.234667 0c8.234667 1.152 20.010667 8.704 20.693333 22.656C408.576 357.802667 396.074667 365.952 388.522667 367.104L334.72 367.104zM402.218667 655.616l0-204.8c1.152-25.6-8.704-37.802667-29.653333-36.650667L330.709333 414.165333C317.909333 415.36 310.954667 423.509333 309.76 438.613333c1.152 16.298667 8.149333 25.002667 20.949333 26.154667L348.16 464.768c3.498667 0 5.248 1.749333 5.248 5.248l0 206.677333c-0.085333 0.512-0.128 1.066667-0.128 1.621333 0.128 3.029333 0.853333 5.76 1.962667 8.234667 2.901333 9.514667 7.893333 14.464 19.114667 17.237333 1.877333 0.298667 3.712-0.085333 5.546667-1.066667l49.152 0c7.253333-1.152 20.778667-9.301333 21.461333-24.405333-0.64-13.952-13.525333-21.504-21.461333-22.656 0 0-12.16 0-24.874667 0L402.218667 655.658667zM499.925333 633.984c-24.405333 0-36.650667-11.648-36.650667-34.901333L463.274667 497.92c0-23.253333 10.453333-34.901333 31.402667-34.901333l102.912 0c24.405333 0 36.053333 9.898667 34.901333 29.653333l0 106.410667c0 23.253333-10.453333 34.901333-31.402667 34.901333L499.925333 633.984zM512.128 583.381333c1.152 2.346667 2.901333 4.053333 5.248 5.248l61.056 0c3.498667 0 5.248-1.749333 5.248-5.248L583.68 515.370667c0-3.498667-1.749333-5.248-5.248-5.248L517.333333 510.122667c-3.498667 0-5.248 1.749333-5.248 5.248L512.085333 583.381333z" /></svg>