<?xml version="1.0" standalone="no"?><!DOCTYPE svg PUBLIC "-//W3C//DTD SVG 1.1//EN" "http://www.w3.org/Graphics/SVG/1.1/DTD/svg11.dtd"><svg class="icon" width="32px" height="32.00px" viewBox="0 0 1024 1024" version="1.1" xmlns="http://www.w3.org/2000/svg"><path fill="#ffffff" d="M704 104.810068C704 82.246722 716.013414 64 731.510522 64L868.488461 64C883.683482 64 896 81.881214 896 104.810068L896 919.189933C896 941.75328 883.986586 960 868.488461 960L731.510522 960C716.315501 960 704 942.118784 704 919.189933L704 104.810068ZM128 128.938236C128 71.086571 154.494332 47.419126 186.877014 76.345585L615.712989 459.406998C648.095667 488.332204 648.095667 535.667092 615.712989 564.592299L186.877823 947.654963C154.495142 976.580173 128.00081 952.913978 128.00081 895.06231L128.00081 128.938236 128 128.938236Z" /></svg>