<?xml version="1.0" standalone="no"?><!DOCTYPE svg PUBLIC "-//W3C//DTD SVG 1.1//EN" "http://www.w3.org/Graphics/SVG/1.1/DTD/svg11.dtd"><svg class="icon" width="32px" height="32.00px" viewBox="0 0 1024 1024" version="1.1" xmlns="http://www.w3.org/2000/svg"><path fill="#222222" d="M168.87700000000007 506.9960000000002c-5.329070518200751e-15-8.244999999999997 3.166999999999989-15.509999999999998 9.50299999999998-21.823l442.62099999999975-442.6430000000003c6.335999999999997-6.336000000000003 13.62499999999999-9.477000000000004 21.869-9.477000000000011s15.509999999999998 3.1419999999999906 21.84500000000001 9.476999999999986l47.48500000000003 47.50999999999997c6.336000000000003 6.335999999999997 9.502000000000006 13.599999999999989 9.502000000000011 21.84499999999999 1.7763568394002505e-15 8.222-3.166999999999989 15.509999999999998-9.501999999999992 21.845l-373.2899999999999 373.2900000000001 373.2930000000003 373.2669999999997c6.336000000000003 6.335999999999997 9.502000000000006 13.599999999999989 9.502000000000011 21.84499999999999s-3.166999999999991 15.533000000000001-9.502999999999997 21.869l-47.483999999999966 47.48400000000003c-6.335999999999997 6.336000000000003-13.599999999999989 9.502000000000006-21.84499999999999 9.502000000000011s-15.533000000000001-3.166999999999991-21.869-9.502999999999997l-442.6210000000002-442.6219999999997c-6.334000000000002-6.333999999999996-9.503000000000005-13.624999999999993-9.503-21.869z" /></svg>