<?xml version="1.0" standalone="no"?><!DOCTYPE svg PUBLIC "-//W3C//DTD SVG 1.1//EN" "http://www.w3.org/Graphics/SVG/1.1/DTD/svg11.dtd"><svg class="icon" width="32px" height="32.00px" viewBox="0 0 1024 1024" version="1.1" xmlns="http://www.w3.org/2000/svg"><path fill="#222222" d="M855.1229999999999 517.0039999999999c2.6645352591003757e-15 8.244999999999997-3.1669999999999945 15.509999999999998-9.50299999999999 21.823l-442.6209999999999 442.64300000000014c-6.3359999999999985 6.336000000000001-13.624999999999996 9.477000000000002-21.869 9.477000000000007s-15.509999999999998-3.141999999999996-21.845000000000002-9.476999999999993l-47.485000000000014-47.509999999999984c-6.336000000000001-6.3359999999999985-9.502000000000004-13.599999999999994-9.502000000000006-21.845-1.7763568394002505e-15-8.222 3.1669999999999945-15.509999999999998 9.501999999999992-21.845l373.2899999999999-373.2900000000001-373.2930000000001-373.2669999999999c-6.336000000000001-6.3359999999999985-9.502000000000004-13.599999999999994-9.502000000000006-21.845s3.1669999999999954-15.533 9.502999999999997-21.869l47.48399999999998-47.484000000000016c6.3359999999999985-6.336000000000001 13.599999999999994-9.502000000000004 21.845-9.502000000000006s15.533 3.1669999999999954 21.869 9.502999999999997l442.62100000000004 442.62199999999984c6.3340000000000005 6.333999999999998 9.503000000000002 13.624999999999996 9.503 21.869z" /></svg>