<?xml version="1.0" standalone="no"?><!DOCTYPE svg PUBLIC "-//W3C//DTD SVG 1.1//EN" "http://www.w3.org/Graphics/SVG/1.1/DTD/svg11.dtd"><svg t="1501554083216" class="icon" style="" viewBox="0 0 1024 1024" version="1.1" xmlns="http://www.w3.org/2000/svg" p-id="5152" xmlns:xlink="http://www.w3.org/1999/xlink" width="64" height="64"><defs><style type="text/css"></style></defs><path d="M0.001023 0h1022.977023v1022.977023h-1022.977023z" fill="#E6E6E6" p-id="5153"></path><path d="M937.047976 1022.977023l-102.297702-166.745255-237.33067-63.424575v-60.355645c27.62038-25.574426 59.332667-60.355644 73.654346-101.274725 17.390609-3.068931 43.988012-25.574426 43.988012-54.217782 0-30.689311-14.321678-55.240759-31.712288-55.240759-3.068931-5.114885-4.091908-9.206793-4.091908-14.321679v-152.423576l-58.30969-42.965035-43.988012-46.033966-241.422577 63.424575 22.505494 39.896104-10.22977 124.803197c-2.045954 9.206793-4.091908 18.413586-5.114885 27.62038-19.436563 0-33.758242 25.574426-33.758242 55.240759 0 28.643357 26.597403 51.148851 43.988012 54.217782 14.321678 39.896104 47.056943 75.7003 74.677323 101.274725v60.355645l-233.238762 63.424575-102.297702 166.745255h844.979021z" fill="#BEBEBE" p-id="5154"></path></svg>