<?xml version="1.0" standalone="no"?><!DOCTYPE svg PUBLIC "-//W3C//DTD SVG 1.1//EN" "http://www.w3.org/Graphics/SVG/1.1/DTD/svg11.dtd"><svg t="1502098884838" class="icon" style="" viewBox="0 0 1024 1024" version="1.1" xmlns="http://www.w3.org/2000/svg" p-id="3680" xmlns:xlink="http://www.w3.org/1999/xlink" width="32" height="32"><defs><style type="text/css"></style></defs><path d="M952.311 921.329l-409.418-410.41 407.261-408.248c8.53-8.551 8.53-22.416 0-30.967-8.532-8.552-22.36-8.552-30.892 0L511.999 479.952 104.737 71.704c-8.53-8.552-22.362-8.552-30.892 0-8.53 8.552-8.53 22.417 0 30.967L481.107 510.92 71.687 921.33c-8.529 8.551-8.529 22.416 0 30.967a21.755 21.755 0 0 0 15.448 6.413c5.59 0 11.181-2.139 15.446-6.413L512 541.886l409.419 410.41a21.755 21.755 0 0 0 15.446 6.413c5.592 0 11.18-2.139 15.447-6.413 8.53-8.55 8.53-22.417 0-30.967z" p-id="3681"></path></svg>