<?xml version="1.0" standalone="no"?><!DOCTYPE svg PUBLIC "-//W3C//DTD SVG 1.1//EN" "http://www.w3.org/Graphics/SVG/1.1/DTD/svg11.dtd"><svg t="1502171911462" class="icon" style="" viewBox="0 0 1024 1024" version="1.1" xmlns="http://www.w3.org/2000/svg" p-id="6405" xmlns:xlink="http://www.w3.org/1999/xlink" width="64" height="64"><defs><style type="text/css"></style></defs><path d="M633.952 54.624l-324.064 0c-45.696 0-82.752 37.056-82.752 82.752l0 768.8c0 45.696 37.056 82.752 82.752 82.752l324.096 0c45.696 0 82.752-37.056 82.752-82.752l0-768.8c-0.032-45.696-37.056-82.752-82.752-82.752zM409.856 130.464l124.128 0 0 20.672-124.128 0 0-20.672zM471.936 956.16c-22.848 0-41.376-18.528-41.376-41.376s18.528-41.376 41.376-41.376 41.376 18.528 41.376 41.376-18.528 41.376-41.376 41.376zM701.184 837.216l-457.472 0 0-627.456 457.472 0 0 627.456z" p-id="6406" fill="#f09da0"></path></svg>