<?xml version="1.0" standalone="no"?><!DOCTYPE svg PUBLIC "-//W3C//DTD SVG 1.1//EN" "http://www.w3.org/Graphics/SVG/1.1/DTD/svg11.dtd"><svg class="icon" width="32px" height="32.00px" viewBox="0 0 1024 1024" version="1.1" xmlns="http://www.w3.org/2000/svg"><path fill="#777777" d="M748.828 433.058V327.801C748.828 197 642.8 90.973 512 90.973c-130.801 0-236.828 106.027-236.828 236.829v105.256c-43.609 0-78.943 35.336-78.943 78.942v184.2c0 130.801 106.027 236.828 236.827 236.828h157.885c130.802 0 236.829-106.027 236.829-236.828V512c0.001-43.606-35.334-78.942-78.942-78.942zM327.8 327.801C327.8 226.064 410.264 143.6 512 143.6c101.735 0 184.2 82.465 184.2 184.202v105.256h-52.631v-105.18c0-72.674-58.897-131.571-131.569-131.571s-131.571 58.897-131.571 131.571v105.18H327.8V327.801z m289.457 0v105.256H406.743V327.801c0-58.129 47.129-105.257 105.257-105.257 58.127 0 105.257 47.128 105.257 105.257z m157.884 263.143V696.2c0 101.556-82.641 184.199-184.199 184.199H433.056c-101.557 0-184.198-82.644-184.198-184.199V512c0-14.517 11.793-26.314 26.314-26.314H748.828c14.521 0 26.313 11.797 26.313 26.314v78.944zM512 590.944c-29.064 0-52.629 23.565-52.629 52.627 0 16.011 8.763 46.308 17.552 70.312 7.17 19.53 16.166 34.918 35.077 34.918 20.559 0 27.906-15.234 35.104-34.663 8.891-24.053 17.523-54.504 17.523-70.566 0-29.062-23.563-52.628-52.627-52.628z" /></svg>