<?xml version="1.0" standalone="no"?><!DOCTYPE svg PUBLIC "-//W3C//DTD SVG 1.1//EN" "http://www.w3.org/Graphics/SVG/1.1/DTD/svg11.dtd"><svg class="icon" width="32px" height="32.00px" viewBox="0 0 1024 1024" version="1.1" xmlns="http://www.w3.org/2000/svg"><path fill="#777777" d="M764.909615 959.301466 259.088338 959.301466c-38.731116 0-70.13229-31.109532-70.13229-69.403696L188.956048 134.102231c0-38.34226 31.402197-69.403696 70.13229-69.403696l505.821277 0c38.731116 0 70.13229 31.061436 70.13229 69.403696l0 755.795539C835.041906 928.191934 803.640732 959.301466 764.909615 959.301466zM511.999488 910.380266c41.302685 0 74.839499-33.683147 74.839499-75.324546 0-41.546232-33.535791-75.277474-74.839499-75.277474-41.301661 0-74.839499 33.731242-74.839499 75.277474C437.15999 876.697119 470.697827 910.380266 511.999488 910.380266zM785.342993 164.096359 238.655983 164.096359l0 546.71157 546.68701 0L785.342993 164.096359z" /></svg>