<?xml version="1.0" standalone="no"?><!DOCTYPE svg PUBLIC "-//W3C//DTD SVG 1.1//EN" "http://www.w3.org/Graphics/SVG/1.1/DTD/svg11.dtd"><svg t="1502098590181" class="icon" style="" viewBox="0 0 1024 1024" version="1.1" xmlns="http://www.w3.org/2000/svg" p-id="2434" xmlns:xlink="http://www.w3.org/1999/xlink" width="32" height="32"><defs><style type="text/css"></style></defs><path d="M817.707 250.826c14.122-14.122 14.39-37.69 0.018-52.061-14.471-14.471-37.679-14.363-52.061 0.018L505.469 458.979 245.274 198.783c-14.122-14.122-37.689-14.389-52.061-0.018-14.471 14.471-14.363 37.68 0.019 52.061l260.195 260.195-260.196 260.196c-14.122 14.122-14.39 37.69-0.019 52.061 14.471 14.471 37.68 14.363 52.061-0.018l260.195-260.195L765.663 823.26c14.122 14.122 37.691 14.389 52.061 0.018 14.472-14.471 14.363-37.68-0.018-52.061L557.512 511.021l260.195-260.195z" fill="" p-id="2435"></path></svg>