<?xml version="1.0" standalone="no"?><!DOCTYPE svg PUBLIC "-//W3C//DTD SVG 1.1//EN" "http://www.w3.org/Graphics/SVG/1.1/DTD/svg11.dtd"><svg t="1502085288238" class="icon" style="" viewBox="0 0 1024 1024" version="1.1" xmlns="http://www.w3.org/2000/svg" p-id="60359" xmlns:xlink="http://www.w3.org/1999/xlink" width="48" height="48"><defs><style type="text/css"></style></defs><path d="M120.2 956a392.1 40.1 0 1 0 784.2 0 392.1 40.1 0 1 0-784.2 0Z" fill="#E5E5E5" p-id="60360"></path><path d="M813 495.3c15.7-19.6 25.1-44.1 25.1-70.6 0-64-54.5-116.4-121-116.4h-13c11-10.3 19.2-23.2 23.8-37.7 9-13.5 14.3-29.5 14.3-46.6 0-47.8-40.6-86.8-90.2-86.8H530.8c-1.9 0-20.7-3.2-22.2-4.1-17.8-10-19.9-33.4-19.9-54.6 0-6.6 6.9-46.4 7.8-52.7-75.9 13.7-139.7 111-139.7 188 0 31.9 11.7 78.4 28.8 94.5h-78.1c-66.6 0-121 52.4-121 116.4 0 26.5 9.4 51 25.1 70.6-71.8 20-124.8 84-124.8 159.3 0 91.2 77.6 165.9 172.4 165.9h506.2c94.8 0 172.4-74.6 172.4-165.9 0-75.3-53-139.3-124.8-159.3z" fill="#F2B986" p-id="60361"></path><path d="M765.4 830.5H259.2c-48.5 0-94.2-18.3-128.7-51.5-34.6-33.3-53.7-77.5-53.7-124.4 0-38.8 13-75.7 37.6-106.6 20.9-26.2 49.3-46.5 81.1-58-12.5-19.7-19-42-19-65.3 0-69.7 58.8-126.4 131-126.4h58.7c-4.9-9.4-8.6-19.9-11.1-28.5-5.3-18.5-8.4-38.9-8.4-55.9 0-40 15.8-85 43.2-123.6 29.2-41 66.4-67.4 104.7-74.3 3.2-0.6 6.4 0.4 8.7 2.7 2.3 2.2 3.4 5.5 2.9 8.6-0.2 1.6-0.8 4.8-1.5 9.3-1.7 10.3-6.2 37.6-6.2 41.9 0 31.8 7 41.1 14.1 45.4 3.6 0.9 15.8 3 18.4 3.3h121c55.3 0 100.2 43.4 100.2 96.8 0 18-5.3 35.6-15.2 51-2.8 8.3-6.7 16.2-11.6 23.5 68.4 4.2 122.7 59.2 122.7 126.2 0 23.2-6.5 45.5-19 65.3 31.8 11.6 60.2 31.8 81.1 58 24.6 30.9 37.6 67.8 37.6 106.6 0 46.9-19.1 91-53.7 124.4-34.6 33.2-80.3 51.5-128.7 51.5zM307.5 318.3c-61.2 0-111 47.7-111 106.4 0 23.3 7.9 45.6 22.9 64.4 2.1 2.6 2.7 6.1 1.7 9.3-1 3.2-3.6 5.7-6.8 6.6-69.2 19.3-117.5 80.8-117.5 149.7 0 41.4 16.9 80.4 47.6 109.9 30.8 29.6 71.6 45.9 114.8 45.9h506.2c43.3 0 84-16.3 114.8-45.9 30.7-29.5 47.6-68.6 47.6-109.9 0-68.9-48.3-130.4-117.5-149.7-3.2-0.9-5.8-3.4-6.8-6.6-1-3.2-0.4-6.7 1.7-9.3 15-18.8 22.9-41 22.9-64.4 0-58.7-49.8-106.4-111-106.4h-13c-4.1 0-7.8-2.5-9.3-6.3-1.5-3.8-0.5-8.2 2.4-11 9.8-9.2 17.1-20.8 21.1-33.4 0.3-0.9 0.7-1.8 1.2-2.5 8.3-12.4 12.6-26.6 12.6-41.1 0-42.4-36-76.8-80.2-76.8H530.8c-1.5 0-22.9-3-27.1-5.4-22.1-12.4-25-39-25-63.3 0-4.5 2-17.8 5.5-39.2-28 9.4-55.7 31.6-77.8 62.6-24.7 34.7-39.5 76.6-39.5 112 0 33 12.2 74.6 25.6 87.2 3 2.8 4 7.2 2.4 11-1.5 3.8-5.2 6.3-9.3 6.3h-78.1z" fill="#231815" p-id="60362"></path><path d="M937.8 654.6c0-75.3-52.9-139.3-124.8-159.3 15.7-19.6 25.1-44.1 25.1-70.6 0-64-54.5-116.4-121-116.4h-13c11-10.3 19.2-23.2 23.8-37.7 9-13.5 14.3-29.5 14.3-46.6 0-16.7-5.1-32.3-13.7-45.6 0 0-26.1-37.4-116-41.2h-81.8c-0.8 0-4.4-0.5-8.4-1.2-26 35.8-42.3 80-42.3 119 0 31.9 11.7 78.4 28.8 94.5h-78.1c-66.6 0-121 52.4-121 116.4 0 26.5 9.4 51 25.1 70.6-71.8 20-124.8 84-124.8 159.3 0 49.6 22.9 94.2 59 124.7h496.3c94.9 0 172.5-74.6 172.5-165.9z" fill="#A0683F" p-id="60363"></path><path d="M765.4 830.5H259.2c-48.5 0-94.2-18.3-128.7-51.5-34.6-33.3-53.7-77.5-53.7-124.4 0-38.8 13-75.7 37.6-106.6 20.9-26.2 49.3-46.5 81.1-58-12.5-19.7-19-42-19-65.3 0-69.7 58.8-126.4 131-126.4h58.7c-4.9-9.4-8.6-19.9-11.1-28.5-5.3-18.5-8.4-38.9-8.4-55.9 0-40 15.8-85 43.2-123.6 29.2-41 66.4-67.4 104.7-74.3 3.2-0.6 6.4 0.4 8.7 2.7 2.3 2.2 3.4 5.5 2.9 8.6-0.2 1.6-0.8 4.8-1.5 9.3-1.7 10.3-6.2 37.6-6.2 41.9 0 31.8 7 41.1 14.1 45.4 3.6 0.9 15.8 3 18.4 3.3h121c55.3 0 100.2 43.4 100.2 96.8 0 18-5.3 35.6-15.2 51-2.8 8.3-6.7 16.2-11.6 23.5 68.4 4.2 122.7 59.2 122.7 126.2 0 23.2-6.5 45.5-19 65.3 31.8 11.6 60.2 31.8 81.1 58 24.6 30.9 37.6 67.8 37.6 106.6 0 46.9-19.1 91-53.7 124.4-34.6 33.2-80.3 51.5-128.7 51.5zM307.5 318.3c-61.2 0-111 47.7-111 106.4 0 23.3 7.9 45.6 22.9 64.4 2.1 2.6 2.7 6.1 1.7 9.3-1 3.2-3.6 5.7-6.8 6.6-69.2 19.3-117.5 80.8-117.5 149.7 0 41.4 16.9 80.4 47.6 109.9 30.8 29.6 71.6 45.9 114.8 45.9h506.2c43.3 0 84-16.3 114.8-45.9 30.7-29.5 47.6-68.6 47.6-109.9 0-68.9-48.3-130.4-117.5-149.7-3.2-0.9-5.8-3.4-6.8-6.6-1-3.2-0.4-6.7 1.7-9.3 15-18.8 22.9-41 22.9-64.4 0-58.7-49.8-106.4-111-106.4h-13c-4.1 0-7.8-2.5-9.3-6.3-1.5-3.8-0.5-8.2 2.4-11 9.8-9.2 17.1-20.8 21.1-33.4 0.3-0.9 0.7-1.8 1.2-2.5 8.3-12.4 12.6-26.6 12.6-41.1 0-42.4-36-76.8-80.2-76.8H530.8c-1.5 0-22.9-3-27.1-5.4-22.1-12.4-25-39-25-63.3 0-4.5 2-17.8 5.5-39.2-28 9.4-55.7 31.6-77.8 62.6-24.7 34.7-39.5 76.6-39.5 112 0 33 12.2 74.6 25.6 87.2 3 2.8 4 7.2 2.4 11-1.5 3.8-5.2 6.3-9.3 6.3h-78.1z" fill="#231815" p-id="60364"></path><path d="M332.3 519.9m-26.2 0a26.2 26.2 0 1 0 52.4 0 26.2 26.2 0 1 0-52.4 0Z" fill="#231815" p-id="60365"></path><path d="M692.2 519.9m-26.2 0a26.2 26.2 0 1 0 52.4 0 26.2 26.2 0 1 0-52.4 0Z" fill="#231815" p-id="60366"></path><path d="M512.3 642.4c-48.6 0-94.1-5.8-133.2-15.8-14.1-3.6-27.5 8.4-24.4 22.1 15.5 70.2 80.1 122.9 157.6 122.9s142.2-52.7 157.6-122.9c3-13.8-10.3-25.8-24.4-22.1-39.2 10-84.6 15.8-133.2 15.8z" fill="#FFA6D7" p-id="60367"></path><path d="M512.3 781.6c-39.4 0-77.8-13.2-108.3-37.3-30.1-23.8-51.1-57-59.1-93.5-2.1-9.6 0.9-19.5 8.1-26.5 7.6-7.3 18.3-10.1 28.6-7.5 39.5 10.1 84.7 15.5 130.7 15.5 46 0 91.2-5.4 130.7-15.5 10.3-2.6 21 0.2 28.6 7.5 7.2 7 10.2 16.9 8.1 26.5-8 36.5-29 69.7-59.1 93.5-30.5 24-68.9 37.3-108.3 37.3zM374 635.9c-2.6 0-5.1 1-7.1 2.9-1.3 1.3-3.3 3.9-2.5 7.8 7.1 32 25.5 61.2 52 82.1 26.9 21.3 61 33 95.9 33s69-11.7 95.9-33c26.5-20.9 44.9-50.1 52-82.1 0.9-3.9-1.2-6.5-2.5-7.8-2.6-2.5-6.2-3.4-9.7-2.5-41.1 10.6-88 16.1-135.7 16.1-47.7 0-94.6-5.6-135.7-16.1-0.9-0.3-1.8-0.4-2.6-0.4z" fill="#231815" p-id="60368"></path><path d="M615.9 735.2c-28-22.7-64.2-36.4-103.7-36.4s-75.6 13.7-103.7 36.4c28 22.7 64.2 36.4 103.7 36.4s75.7-13.7 103.7-36.4z" fill="#FF66C1" p-id="60369"></path><path d="M512.3 781.6c-40.2 0-79.2-13.7-110-38.7-2.3-1.9-3.7-4.8-3.7-7.8s1.4-5.9 3.7-7.8c30.7-24.9 69.8-38.7 110-38.7s79.2 13.7 110 38.7c2.3 1.9 3.7 4.8 3.7 7.8s-1.4 5.9-3.7 7.8c-30.8 25-69.9 38.7-110 38.7z m-86.9-46.4c25.3 17.1 55.7 26.4 86.9 26.4s61.5-9.3 86.9-26.4c-25.3-17.1-55.7-26.4-86.9-26.4s-61.6 9.2-86.9 26.4z" fill="#231815" p-id="60370"></path><path d="M224.6 627a44.2 27.4 0 1 0 88.4 0 44.2 27.4 0 1 0-88.4 0Z" fill="#7A4420" p-id="60371"></path><path d="M708.6 627a44.2 27.4 0 1 0 88.4 0 44.2 27.4 0 1 0-88.4 0Z" fill="#7A4420" p-id="60372"></path></svg>