<?xml version="1.0" standalone="no"?><!DOCTYPE svg PUBLIC "-//W3C//DTD SVG 1.1//EN" "http://www.w3.org/Graphics/SVG/1.1/DTD/svg11.dtd"><svg class="icon" width="32px" height="32.00px" viewBox="0 0 1024 1024" version="1.1" xmlns="http://www.w3.org/2000/svg"><path fill="#222222" d="M511.994 675.198c-14.362 0-27.262-6.697-36.173-17.346l-0.004 0.006-146.031-174.653c-7.771-9.284-12.499-21.569-12.499-35.048 0-28.935 21.792-52.395 48.675-52.395 14.364 0 27.269 6.699 36.179 17.348l0.004-0.003 61.178 73.16v-343.747c0-28.936 21.792-52.395 48.672-52.395 26.891 0 48.68 23.458 48.68 52.395 0 0 0 0 0 0.002v343.746l61.179-73.157c8.908-10.649 21.813-17.348 36.176-17.348 26.886 0 48.678 23.46 48.678 52.395 0 13.479-4.731 25.765-12.499 35.048l0.004 0.005-146.035 174.642c-8.907 10.651-21.815 17.346-36.182 17.346v0zM836.517 619.511v209.577h-649.036v-209.577c0-28.938-21.795-52.395-48.678-52.395s-48.678 23.456-48.678 52.395v261.972c0 28.936 21.795 52.392 48.678 52.392h746.393c26.888 0 48.68-23.456 48.68-52.392v-261.972c0-28.938-21.792-52.395-48.68-52.395-26.883 0-48.678 23.456-48.678 52.395v0z" /></svg>