<?xml version="1.0" standalone="no"?><!DOCTYPE svg PUBLIC "-//W3C//DTD SVG 1.1//EN" "http://www.w3.org/Graphics/SVG/1.1/DTD/svg11.dtd"><svg class="icon" width="32px" height="18.41px" viewBox="0 0 1780 1024" version="1.1" xmlns="http://www.w3.org/2000/svg"><path fill="#222222" d="M1011.591039 606.27943l33.081873 82.535234c74.727495-50.378819 124.076578-136.759267 124.076579-235.07943 0-155.463951-123.424847-281.417515-275.695316-281.456619S617.410998 298.232179 617.371894 453.735234a282.955601 282.955601 0 0 0 116.203666 229.55275l33.407739-83.421589a196.444807 196.444807 0 0 1-64.729939-146.118126c0.156415-107.561711 85.441955-194.606925 190.800815-194.815479C998.452138 259.12831 1083.698574 346.173523 1083.85499 453.735234a196.171079 196.171079 0 0 1-72.276986 152.505092zM893.054175 0c-248.38778 0-455.247251 200.159674-455.24725 453.774338 0 169.789002 92.676171 317.953564 228.470875 397.399593l39.429736-98.398371c-96.364969-63.139715-160.325866-173.360489-160.53442-299.001222 0.325866-196.184114 155.750713-354.880652 347.881059-355.245621 192.130346 0.378004 347.529124 159.022403 347.881059 355.245621-0.234623 129.134012-67.688798 242.013849-168.563747 304.175967l38.986558 97.329532c138.010591-78.403259 231.364562-228.770672 231.364562-401.466395 0-253.614664-201.280652-453.7222-449.694501-453.774338z m-23.371079 520.668024L713.971487 1024h358.165377L916.425255 520.668024z"  /></svg>