<?xml version="1.0" standalone="no"?><!DOCTYPE svg PUBLIC "-//W3C//DTD SVG 1.1//EN" "http://www.w3.org/Graphics/SVG/1.1/DTD/svg11.dtd"><svg class="icon" width="32px" height="32.00px" viewBox="0 0 1024 1024" version="1.1" xmlns="http://www.w3.org/2000/svg"><path fill="#222222" d="M984.615385 861.210256v-5.251282c-2.625641-139.158974-86.646154-257.312821-204.8-315.076923v-5.251282c55.138462-44.635897 89.271795-110.276923 89.271794-183.794872 0-126.030769-97.148718-228.430769-220.553846-236.307692l-2.625641 2.625641c-21.005128 0-36.758974 18.379487-36.758974 36.758975V157.538462c0 21.005128 15.753846 36.758974 36.758974 36.758974 5.251282 0 10.502564-2.625641 15.753846-2.625641 2.625641 2.625641 2.625641 5.251282 5.251283 7.876923 68.266667 18.379487 118.153846 78.769231 118.153846 152.287179 0 57.764103-31.507692 107.651282-78.769231 136.533334l-2.625641 2.625641c-15.753846 5.251282-28.882051 18.379487-34.133333 34.133333l-5.251283 5.251282 2.625642 2.625641V548.758974c0 31.507692 23.630769 55.138462 55.138461 55.138462 5.251282 0 7.876923 0 13.128205-2.625641 2.625641 5.251282 7.876923 10.502564 10.502564 13.128205 91.897436 44.635897 154.912821 136.533333 157.538462 244.184615v5.251282c0 21.005128 18.379487 39.384615 39.384615 39.384616s39.384615-18.379487 39.384616-39.384616l2.625641-2.625641z m-236.307693-5.251282c-2.625641-141.784615-86.646154-259.938462-210.051282-315.076923 55.138462-44.635897 91.897436-110.276923 91.897436-186.420513 0-131.282051-105.025641-236.307692-236.307692-236.307692s-236.307692 105.025641-236.307692 236.307692c0 76.14359 36.758974 144.410256 91.897435 186.420513-120.779487 55.138462-204.8 173.292308-210.051282 312.451282v13.128205c0 21.005128 18.379487 39.384615 39.384616 39.384616s39.384615-18.379487 39.384615-39.384616c0-144.410256 112.902564-265.189744 254.68718-275.692307H420.102564c139.158974 10.502564 252.061538 126.030769 254.68718 270.441025v5.251282c0 21.005128 18.379487 39.384615 39.384615 39.384616s39.384615-18.379487 39.384615-39.384616v-2.625641c-5.251282-5.251282-5.251282-5.251282-5.251282-7.876923zM393.846154 509.374359c-86.646154 0-157.538462-70.892308-157.538462-157.538462s70.892308-157.538462 157.538462-157.538461 157.538462 70.892308 157.538461 157.538461-70.892308 157.538462-157.538461 157.538462z" /></svg>