<?xml version="1.0" standalone="no"?><!DOCTYPE svg PUBLIC "-//W3C//DTD SVG 1.1//EN" "http://www.w3.org/Graphics/SVG/1.1/DTD/svg11.dtd"><svg class="icon" width="32px" height="32.00px" viewBox="0 0 1024 1024" version="1.1" xmlns="http://www.w3.org/2000/svg"><path fill="#222222" d="M512 51.2C257.51552 51.2 51.2 257.51552 51.2 512s206.31552 460.8 460.8 460.8 460.8-206.31552 460.8-460.8S766.48448 51.2 512 51.2zM512 880.64c-203.58144 0-368.64-165.05856-368.64-368.64s165.05856-368.64 368.64-368.64 368.64 165.05856 368.64 368.64S715.58144 880.64 512 880.64zM680.7552 635.48416c2.95936 39.19872-26.46016 74.88512-65.76128 79.77984-39.23968 4.864-73.56416-22.9376-76.50304-62.13632-3.00032-39.14752 26.5216-74.88512 65.76128-79.73888 12.42112-1.52576 24.29952 0.18432 34.9184 4.49536L639.17056 385.42336l-184.32 34.28352 0 240.4352-0.3584 0c0.08192 0.67584 0.256 1.30048 0.256 1.97632 2.97984 39.19872-26.46016 74.84416-65.69984 79.73888-39.3216 4.864-73.5232-22.94784-76.50304-62.09536-3.0208-39.19872 26.4192-74.91584 65.69984-79.73888 12.42112-1.57696 24.29952 0.18432 34.9184 4.53632L413.16352 327.41376l0-0.0512 267.39712-45.6704 0.256-0.09216 0 0.04096 0.1024-0.04096-0.1024 1.21856 0 350.72-0.3584 0C680.58112 634.22464 680.704 634.79808 680.7552 635.48416z" /></svg>