<?xml version="1.0" standalone="no"?><!DOCTYPE svg PUBLIC "-//W3C//DTD SVG 1.1//EN" "http://www.w3.org/Graphics/SVG/1.1/DTD/svg11.dtd"><svg class="icon" width="32px" height="32.00px" viewBox="0 0 1024 1024" version="1.1" xmlns="http://www.w3.org/2000/svg"><path fill="#222222" d="M527.1552 830.7712c221.1584-200.96 290.4576-272.3584 336.5888-358.2208 21.888-40.7296 32.256-78.3616 32.256-116.7104 0-99.5072-77.1328-176.64-176.64-176.64-56.2432 0-112.3072 26.368-148.8896 69.2992L512 317.1584l-58.4704-68.6592C416.9472 205.5424 360.8832 179.2 304.64 179.2 205.1328 179.2 128 256.3328 128 355.84c0 38.5024 10.4448 76.288 32.512 117.248 46.3104 85.76 116.096 157.5168 336.256 357.1712l15.4368 14.0288 14.9504-13.5168zM512 198.7072a272.1536 272.1536 0 0 1 56.1664-49.792C613.376 119.1424 665.6512 102.4 719.36 102.4c141.9264 0 253.44 111.5136 253.44 253.44 0 174.1824-156.672 316.1088-393.984 531.7632L512 947.968l-66.816-60.8256C207.872 671.9488 51.2 530.0224 51.2 355.84 51.2 213.9136 162.7136 102.4 304.64 102.4c53.7088 0 105.984 16.7424 149.7344 45.5424 22.4512 14.976 41.4208 31.744 57.6256 50.7648z" /></svg>