<?xml version="1.0" standalone="no"?><!DOCTYPE svg PUBLIC "-//W3C//DTD SVG 1.1//EN" "http://www.w3.org/Graphics/SVG/1.1/DTD/svg11.dtd"><svg t="1500885642747" class="icon" style="" viewBox="0 0 1024 1024" version="1.1" xmlns="http://www.w3.org/2000/svg" p-id="42926" xmlns:xlink="http://www.w3.org/1999/xlink" width="32" height="32"><defs><style type="text/css"></style></defs><path d="M170.667 448c-35.414 0-64 28.587-64 64s28.586 64 64 64c35.413 0 64-28.587 64-64s-28.587-64-64-64z m0-256c-35.414 0-64 28.587-64 64s28.586 64 64 64c35.413 0 64-28.587 64-64s-28.587-64-64-64z m0 519.253c-43.667-1.214-72.273 45.298-51.491 83.722a56.747 56.747 0 0 0 51.448 29.729c43.668-1.181 69.681-49.191 46.824-86.418a56.746 56.746 0 0 0-46.781-27.033z m128 99.414H896v-85.334H298.667v85.334z m0-256H896v-85.334H298.667v85.334z m0-341.334v85.334H896v-85.334H298.667z" fill="" p-id="42927"></path></svg>