<?xml version="1.0" standalone="no"?><!DOCTYPE svg PUBLIC "-//W3C//DTD SVG 1.1//EN" "http://www.w3.org/Graphics/SVG/1.1/DTD/svg11.dtd"><svg t="1500877485088" class="icon" style="" viewBox="0 0 1024 1024" version="1.1" xmlns="http://www.w3.org/2000/svg" p-id="42259" xmlns:xlink="http://www.w3.org/1999/xlink" width="32" height="32"><defs><style type="text/css"></style></defs><path d="M683.549 216.614l-343.619 57.404c-1.114 0.176-2.155 0.506-3.165 0.891h-12.413c-8.464 0-15.187 6.771-15.187 15.114v392.813c-13.408-7.753-28.998-12.178-45.613-12.178-50.379 0-91.224 40.746-91.224 91.017 0 50.275 40.844 91.015 91.224 91.015 50.377 0 91.224-40.742 91.224-91.015 0-3.684-0.221-7.305-0.639-10.838 0.405-1.306 0.639-2.809 0.639-4.365 0-0.010 0-0.022 0-0.033v-319.462l319.286-56.303v221.111c-13.408-7.723-28.997-12.177-45.612-12.177-50.379 0-91.224 40.772-91.224 91.047 0 50.245 40.844 91.017 91.224 91.017s91.224-40.772 91.224-91.017c0-3.683-0.222-7.304-0.638-10.868 0.415-1.399 0.637-2.852 0.637-4.395v-424.733c0-7.427-5.39-13.631-12.486-14.88-2.48-1.542-5.597-2.168-9.028-1.602l-8.077 1.366h-0.833c-0.002 0-0.004 0-0.006 0-2.049 0-4.007 0.391-5.802 1.105zM683.549 216.614z" p-id="42260"></path></svg>