<?xml version="1.0" standalone="no"?><!DOCTYPE svg PUBLIC "-//W3C//DTD SVG 1.1//EN" "http://www.w3.org/Graphics/SVG/1.1/DTD/svg11.dtd"><svg class="icon" width="32px" height="32.00px" viewBox="0 0 1024 1024" version="1.1" xmlns="http://www.w3.org/2000/svg"><path fill="#222222" d="M819.197952 742.474752 563.201024 742.474752l0 102.427648 179.19488 0c14.13632 0 25.598976 11.469824 25.598976 25.611264 0 14.144512-11.462656 25.60512-25.598976 25.60512L281.591808 896.118784c-14.133248 0-25.6-11.459584-25.6-25.60512 0-14.14144 11.466752-25.611264 25.6-25.611264l179.203072 0L460.79488 742.474752 204.8 742.474752c-56.55552 0-102.4-45.862912-102.4-102.432768l0-409.73312c0-56.566784 45.84448-102.428672 102.4-102.428672l614.397952 0C875.754496 127.880192 921.6 173.74208 921.6 230.308864l0 409.73312C921.6 696.61184 875.754496 742.474752 819.197952 742.474752L819.197952 742.474752zM819.197952 281.525248c0-28.280832-22.92224-51.216384-51.203072-51.216384L255.998976 230.308864c-28.27776 0-51.198976 22.935552-51.198976 51.216384l0 307.298304c0 28.285952 22.920192 51.218432 51.198976 51.218432l511.996928 0c28.280832 0 51.203072-22.93248 51.203072-51.218432L819.198976 281.525248 819.197952 281.525248zM654.949376 450.970624c0.083968 0.208896 0.11776 0.446464 0.2048 0.66048L440.153088 585.911296c-0.078848-0.098304-0.185344-0.169984-0.269312-0.269312-2.971648 1.531904-6.22592 2.637824-9.868288 2.637824-10.912768 0-19.607552-7.908352-20.43392-17.854464-0.034816 0-0.06144-0.01536-0.09216-0.01536l0-0.42496c-0.014336-0.338944-0.214016-0.628736-0.214016-0.982016 0-0.33792 0.19968-0.627712 0.214016-0.974848L409.489408 301.319168c-0.014336-0.34816-0.214016-0.636928-0.214016-0.980992 0-0.34816 0.19968-0.636928 0.214016-0.985088l0-0.115712c0.011264 0 0.017408-0.009216 0.0256-0.009216 0.654336-10.09664 9.470976-18.16576 20.50048-18.16576 3.781632 0 7.138304 1.195008 10.18368 2.840576 0.078848-0.093184 0.188416-0.159744 0.267264-0.249856l214.673408 134.115328c-0.083968 0.196608-0.109568 0.411648-0.191488 0.608256 6.060032 3.36384 10.331136 9.253888 10.331136 16.295936C665.280512 441.70752 661.009408 447.606784 654.949376 450.970624L654.949376 450.970624z" /></svg>