<?xml version="1.0" standalone="no"?><!DOCTYPE svg PUBLIC "-//W3C//DTD SVG 1.1//EN" "http://www.w3.org/Graphics/SVG/1.1/DTD/svg11.dtd"><svg t="1500897793993" class="icon" style="" viewBox="0 0 1024 1024" version="1.1" xmlns="http://www.w3.org/2000/svg" p-id="1945" xmlns:xlink="http://www.w3.org/1999/xlink" width="64" height="64"><defs><style type="text/css"></style></defs><path d="M490.533333 13.866667c-0.666667 0.666667-6.133333 1.333333-32.533333 3.333333-15.6 1.2-27.866667 3.066667-42 6.266667-4.8 1.066667-9.866667 1.866667-11.2 1.866667-1.466667 0-5.866667 0.933333-10 2.133333-4.133333 1.066667-10.8 2.933333-14.8 4.133333-16.933333 4.533333-22.133333 6.133333-25.333333 7.466667-1.866667 0.666667-5.066667 1.733333-7.333333 2.266667-2.133333 0.666667-7.333333 2.4-11.333333 4-4 1.6-8.8 3.333333-10.666667 3.866667-1.866667 0.666667-7.066667 2.666667-11.333333 4.666667-4.4 2-9.733333 4.4-12 5.333333-12.4 5.466667-37.6 18.533333-39.733333 20.666667-0.8 0.8-2.266667 1.466667-3.066667 1.466667-0.933333 0-5.466667 2.533333-10.133333 5.6-9.466667 6.4-12.8 8.533333-15.733333 9.866667-1.066667 0.533333-4.133333 2.533333-6.666667 4.533333-2.533333 2-8.666667 6.266667-13.466667 9.6-4.8 3.333333-10 7.066667-11.333333 8.266667-1.466667 1.2-10.933333 9.333333-21.2 18-18.533333 15.733333-36 32.933333-50 49.333333-4 4.666667-8.266667 9.466667-9.466667 10.666667-3.066667 3.2-26.533333 34.533333-26.533333 35.6 0 0.4-1.866667 3.066667-4 5.866667-2.266667 2.8-4 5.466667-4 5.866667 0 0.4-1.733333 3.333333-4 6.4-2.133333 2.933333-4 6.133333-4 6.8 0 0.8-0.8 2.4-1.866667 3.466667-4.933333 5.733333-24.533333 44.933333-32.133333 64.133333-1.2 3.333333-3.066667 7.6-4.133333 9.6-1.066667 1.866667-1.866667 4.4-1.866667 5.466667 0 1.2-0.8 3.733333-1.866667 5.866667-1.066667 2-2.933333 7.333333-4.266667 11.733333-1.2 4.4-2.933333 10.133333-3.866667 12.666667-2.666667 7.466667-6.133333 21.333333-8.666667 34-0.8 4.4-2.133333 9.733333-2.8 12-0.8 2.133333-1.733333 8.133333-2.133333 13.333333-0.4 5.066667-1.333333 10.4-2 11.733333-0.666667 1.333333-1.866667 10.933333-2.666667 21.333333-3.2 42.533333-3.333333 50.533333-2.133333 70.266667 0.533333 6.933333 1.333333 18.933333 1.733333 26.666667 0.533333 7.733333 1.733333 17.333333 2.8 21.333333 1.066667 4 1.866667 9.466667 1.866667 12.133333 0 2.533333 0.933333 7.733333 2 11.333333 1.066667 3.6 2 8 2 9.733333 0 1.733333 0.8 6.266667 1.866667 10 1.066667 3.733333 2.933333 10.666667 4.133333 15.466667 1.2 4.8 2.8 10.4 3.466667 12.666667 0.8 2.133333 1.866667 5.733333 2.533333 8 1.733333 6.133333 5.066667 15.6 14.133333 39.6 1.2 3.2 2.666667 6.666667 3.333333 7.733333 0.666667 1.066667 1.6 2.933333 2 4 2.533333 6.8 12.666667 27.6 18.533333 38 2.533333 4.4 5.2 9.2 6 10.666667 1.6 3.333333 2.266667 4.266667 14.533333 23.333333 9.466667 14.666667 24.266667 35.2 27.466667 38 0.8 0.666667 3.6 4 6 7.333333 6 7.866667 12.133333 14.533333 31.466667 33.866667 14.4 14.533333 19.466667 19.066667 36.4 33.6 7.066667 6 31.866667 24.533333 32.933333 24.533333 0.4 0 3.066667 1.866667 5.866667 4 2.8 2.266667 5.333333 4 5.733333 4 0.4 0 4.533333 2.533333 9.2 5.733333 9.466667 6.266667 11.066667 7.2 22.8 13.466667 19.066667 10.266667 41.333333 20.8 56.933333 26.8 3.333333 1.2 7.333333 2.8 9.066667 3.466667 16.533333 6.4 52.133333 16.8 70.266667 20.533333 5.866667 1.2 14.533333 3.066667 19.333333 4.133333 4.8 1.066667 11.2 1.866667 14.266667 1.866667 3.066667 0 9.6 0.8 14.666667 1.866667 4.933333 0.933333 10 1.866667 11.066667 1.866667 22.933333 0.4 101.733333 0.133333 102.533333-0.4 1.6-0.933333 8-2 16.8-2.666667 6.4-0.666667 15.6-2.266667 38-6.8 11.2-2.266667 23.333333-5.466667 46-12.266667 10.533333-3.066667 26.266667-8.933333 31.6-11.733333 1.866667-1.066667 4.4-1.866667 5.466667-1.866667 1.2 0 3.733333-0.8 5.866667-1.866667 2-1.066667 8-3.866667 13.066667-6.266667 5.2-2.266667 10.266667-4.8 11.333333-5.333333 1.066667-0.666667 2.933333-1.6 4-2 1.066667-0.4 2.933333-1.333333 4-2 1.066667-0.666667 2.933333-1.6 4-2 1.066667-0.4 2.933333-1.333333 4-2 1.066667-0.666667 2.933333-1.6 4-2.133333 1.066667-0.533333 5.066667-2.666667 8.666667-4.8 3.733333-2.133333 8.533333-4.933333 10.666667-6.133333 12.4-6.933333 46.666667-31.066667 59.466667-42 23.466667-20.133333 40.8-36.8 55.733333-53.466667 4.533333-5.2 9.6-10.8 11.333333-12.666667 7.733333-8.666667 43.466667-58.4 43.466667-60.666667 0-0.533333 11.066667-19.866667 13.333333-23.333333 0.8-1.066667 1.733333-2.933333 2.133333-4 0.4-1.066667 1.333333-2.933333 2-4 0.666667-1.066667 1.6-2.933333 2-4 0.4-1.066667 1.333333-2.933333 2-4 0.666667-1.066667 1.6-2.933333 2-4 1.333333-3.466667 8.666667-19.2 10.666667-23.066667 1.066667-2.133333 1.866667-4.666667 1.866667-5.733333 0-1.2 0.666667-3.333333 1.6-4.933333 2-3.6 4.8-10.8 6.4-16.266667 1.066667-3.866667 2.4-7.6 6-18 1.733333-4.533333 4-13.333333 7.866667-29.066667 1.066667-4.133333 2.533333-10.266667 3.333333-13.6 0.933333-3.333333 2.133333-10.4 2.8-15.733333 0.666667-5.333333 1.6-10.4 2.133333-11.2 0.533333-0.8 1.466667-7.333333 2-14.266667 0.533333-7.066667 1.6-16.666667 2.4-21.466667 1.733333-11.466667 1.733333-68.8 0.133333-80.666667-0.8-5.2-1.866667-14.8-2.533333-21.333333-1.333333-13.2-3.333333-25.2-6.266667-36.933333-1.066667-4.266667-1.866667-9.066667-1.866667-10.666667 0-1.733333-0.8-5.733333-1.866667-9.066667-1.066667-3.333333-2.933333-9.866667-4.266667-14.666667-2.4-8.933333-9.866667-32.8-12.266667-38.666667-0.666667-1.866667-2.4-6-3.6-9.333333-6.8-17.6-18.666667-42.8-28-59.333333-2.533333-4.4-5.2-9.2-6-10.666667-0.8-1.466667-2.533333-4.533333-4-6.666667-1.466667-2.266667-3.066667-4.933333-3.6-6-0.4-1.066667-2.533333-4.133333-4.666667-6.8-2-2.666667-3.733333-5.333333-3.733333-5.733333 0-1.066667-27.733333-38.133333-30-40.133333-0.8-0.8-3.866667-4.266667-6.8-8-7.466667-9.466667-37.866667-39.866667-51.2-51.2-6.266667-5.333333-12.8-11.066667-14.666667-12.666667-1.866667-1.6-5.066667-4.133333-7.333333-5.466667-2.133333-1.466667-5.066667-3.6-6.4-4.933333-2.666667-2.666667-38.8-26.8-46.266667-30.933333-2.533333-1.466667-7.066667-4-10-5.6-5.866667-3.333333-30.933333-15.733333-37.6-18.666667-2.4-1.066667-6.533333-2.8-9.066667-3.866667-2.533333-1.066667-6.8-2.933333-9.333333-4-2.533333-1.066667-6.666667-2.8-9.066667-3.733333-5.866667-2.533333-12.8-4.933333-17.6-6.266667-2.133333-0.533333-5.466667-1.6-7.333333-2.266667-4.4-1.866667-14.666667-4.933333-25.333333-7.733333-4.8-1.2-11.733333-3.066667-15.466667-4.133333-3.733333-1.066667-8.266667-1.866667-10.266667-1.866667-1.866667 0-5.066667-0.666667-7.2-1.466667-2-0.8-7.866667-2-13.066667-2.533333-5.066667-0.666667-12.266667-1.733333-16-2.533333-3.6-0.8-12-1.733333-18.666667-2.133333-6.533333-0.4-14.933333-1.2-18.666667-1.466667-9.866667-1.2-52-2.133333-52.8-1.333333zm43.466667 65.6c3.733333 0.266667 12.4 0.8 19.333333 1.2 6.933333 0.533333 15.733333 1.466667 19.333333 2.266667 3.733333 0.8 10 1.866667 14 2.4 12.933333 1.733333 24.533333 4.4 44 9.866667 15.733333 4.533333 22.266667 6.666667 25.6 8.266667 1.866667 1.066667 4.666667 1.866667 6 1.866667 1.466667 0 3.733333 0.933333 5.2 2 1.333333 1.066667 3.6 2 4.8 2 1.2 0 3.866667 0.8 6 1.866667 2 1.066667 6.4 3.066667 9.733333 4.533333 17.733333 7.733333 40.8 19.866667 52.666667 27.733333 9.6 6.266667 12.666667 8.133333 15.333333 9.333333 2.4 1.2 33.466667 24.533333 35.333333 26.533333 0.8 0.8 4.266667 3.866667 8 6.8 9.466667 7.466667 32 30 43.2 43.2 5.333333 6.266667 10.933333 12.8 12.666667 14.666667 5.866667 6.8 11.466667 14.4 11.466667 15.866667 0 0.8 0.533333 1.466667 1.2 1.466667 0.8 0 2.133333 1.466667 3.066667 3.2 0.933333 1.866667 4.666667 7.733333 8.266667 13.066667 3.733333 5.333333 8.133333 12.4 10 15.733333 5.2 9.733333 6.8 12.4 9.466667 16.666667 1.466667 2.133333 3.066667 4.933333 3.466667 6 0.4 1.066667 1.066667 2.533333 1.333333 3.333333 0.266667 0.666667 1.066667 2.266667 1.733333 3.333333 1.866667 3.333333 8.933333 18.933333 11.466667 25.333333 1.2 3.333333 3.066667 7.733333 4.133333 10 4.666667 10.4 15.6 47.866667 19.733333 67.333333 4 19.866667 5.066667 26.266667 6.266667 40 0.666667 7.733333 1.466667 17.333333 1.866667 21.333333 1.2 11.333333 1.333333 41.066667 0.266667 50-0.533333 4.4-1.466667 14.933333-2.133333 23.466667-0.666667 8.533333-1.466667 16.266667-2 17.066667-0.533333 0.8-1.466667 5.466667-2.133333 10.533333-2 15.2-6.933333 35.333333-14.533333 58.266667-4.266667 12.933333-5.733333 17.066667-7.866667 22-1.066667 2.533333-2.8 6.8-3.866667 9.333333-4.266667 10.133333-5.733333 13.333333-13.866667 29.733333-4.666667 9.466667-9.2 17.733333-10.133333 18.533333-0.933333 0.8-1.733333 2.133333-1.733333 3.2 0 0.933333-2.666667 5.6-6 10.4-3.333333 4.933333-6 9.066667-6 9.466667 0 0.8-10.933333 16.266667-13.733333 19.466667-0.933333 1.066667-5.466667 6.8-9.866667 12.666667-4.533333 5.733333-9.6 12-11.333333 13.866667-1.733333 1.866667-6.933333 7.466667-11.6 12.666667-10.933333 12.133333-34.133333 33.466667-46.8 43.066667-5.466667 4.133333-10.8 8.266667-12 9.333333-2.933333 2.533333-18.533333 13.6-19.2 13.6-0.4 0-4.4 2.533333-9.066667 5.6-4.666667 3.2-9.6 6.4-11.066667 7.2-1.466667 0.666667-7.333333 4-13.066667 7.066667-17.2 9.333333-32.666667 16.533333-47.6 22.133333-3.333333 1.2-7.733333 3.066667-9.733333 4.133333-2.133333 1.066667-4.666667 1.866667-5.6 1.866667-1.066667 0-3.866667 0.8-6.266667 1.866667-9.066667 3.866667-37.466667 11.466667-57.733333 15.466667-23.733333 4.8-36.533333 5.733333-81.333333 5.866667-24.933333 0.133333-48-0.4-51.333333-0.933333-3.333333-0.533333-10.133333-1.6-15.333333-2.266667-9.2-1.066667-18.4-2.8-30-5.6-3.333333-0.8-8.4-1.866667-11.333333-2.533333-2.933333-0.533333-9.466667-2.266667-14.666667-3.866667-5.066667-1.466667-11.066667-3.333333-13.333333-4-6.266667-1.866667-23.6-8-28.266667-10.133333-2.4-0.933333-6.4-2.666667-8.666667-3.6-5.333333-2.266667-22.266667-10.133333-25.066667-11.6-1.066667-0.666667-6.533333-3.466667-12-6.266667-5.466667-2.8-12.533333-6.666667-15.466667-8.8-3.066667-2-5.866667-3.6-6.266667-3.6-0.933333 0-17.6-11.333333-23.733333-16.133333-2.666667-2.133333-5.466667-3.866667-6-3.866667-0.666667 0-3.333333-1.866667-5.866667-4.133333-2.533333-2.133333-8.266667-6.8-12.666667-10.133333-15.733333-12.4-43.6-40-59.2-58.8-7.733333-9.333333-26.8-34.533333-26.8-35.466667 0-0.266667-2.533333-4.4-5.6-9.066667-6.666667-9.733333-8.133333-12.266667-10.933333-17.733333-1.066667-2.266667-3.866667-7.066667-6-10.666667-2.266667-3.733333-4.533333-7.6-4.933333-8.666667-0.4-1.066667-2.666667-5.866667-4.8-10.666667-2.133333-4.8-4.8-10.8-6-13.333333-1.066667-2.533333-2.933333-6.266667-3.866667-8.266667-1.066667-1.866667-1.866667-4.666667-1.866667-6 0-1.333333-0.533333-3.066667-1.2-3.733333-2.533333-2.666667-16.4-48-18.266667-60-0.4-2.266667-1.466667-7.866667-2.533333-12.666667-4.4-20.8-7.466667-53.733333-7.2-80.666667 0.133333-22.133333 1.466667-44.266667 3.2-53.333333 0.4-2.266667 1.333333-8.533333 2-14 0.533333-5.466667 1.733333-11.733333 2.533333-13.733333 0.8-2.133333 1.466667-5.333333 1.466667-7.2 0-2 0.933333-6.8 2.133333-10.933333 5.466667-19.466667 6.266667-22.533333 8.133333-28.8 1.066667-3.733333 2.8-8.4 3.866667-10.4 1.066667-2.133333 1.866667-4.666667 1.866667-5.6 0-1.066667 0.933333-4.133333 2.133333-6.933333 2.133333-4.8 3.2-7.2 7.733333-18.133333 2.666667-6.666667 19.333333-39.733333 22.266667-44.266667 1.333333-2.266667 3.066667-5.2 3.866667-6.666667 12.533333-23.6 55.733333-76.666667 77.466667-95.333333 4.666667-4 10.4-8.933333 12.533333-11.066667 4.666667-4.533333 40.133333-31.6 41.466667-31.6 0.4 0 3.066667-1.6 5.733333-3.733333 6.133333-4.666667 9.333333-6.533333 13.466667-8.4 1.866667-0.8 5.2-2.8 7.6-4.666667 2.266667-1.733333 5.066667-3.2 6.266667-3.2 1.066667 0 2.266667-0.533333 2.666667-1.066667 0.666667-1.066667 16.933333-9.466667 22.133333-11.466667 1.066667-0.4 2.933333-1.333333 4-1.866667 1.066667-0.666667 4.133333-2.133333 6.666667-3.2 2.533333-1.066667 6.8-2.933333 9.333333-4 18-7.866667 47.466667-17.066667 76.666667-23.733333 3.733333-0.8 11.2-2.133333 16.666667-2.8 5.466667-0.666667 11.2-1.733333 12.666667-2.4 1.466667-0.533333 8-1.2 14.533333-1.333333 6.533333-0.133333 12.533333-0.666667 13.333333-1.066667 0.8-0.533333 5.333333-0.8 10.133333-0.666667 4.8 0.133333 9.6-0.4 10.666667-1.2 1.866667-1.2 10.8-1.066667 35.333333 0.933333z" p-id="1946" fill="#e4e4e4"></path><path d="M718.666667 180.933333c-2.533333 0.133333-10.933333 1.2-18.666667 2.4-7.733333 1.066667-21.466667 2.933333-30.666667 4-9.2 1.2-22.933333 2.933333-30.666667 4-17.733333 2.4-40 5.2-61.333333 8-9.2 1.2-22.933333 2.933333-30.666667 4-7.733333 1.066667-21.466667 2.8-30.666667 4-9.2 1.2-22.933333 2.933333-30.666667 4-7.733333 1.066667-21.466667 2.8-30.666667 4-18.533333 2.4-39.066667 5.066667-55.333333 7.333333-6 0.8-15.733333 2-21.866667 2.666667-6.133333 0.666667-11.866667 2-12.933333 2.8-1.6 1.333333-1.866667 32.666667-1.866667 203.333333 0 126.8-0.533333 202-1.333333 202.533333-0.666667 0.4-3.466667-0.266667-6.266667-1.466667-29.6-12.533333-78.266667-14.933333-103.733333-4.933333-27.066667 10.533333-44.8 28.666667-54.4 55.6-3.866667 11.066667-4.133333 37.733333-0.533333 48.8 11.2 33.866667 36.8 53.333333 76.8 58.533333 36.266667 4.666667 68.4-4.266667 90.933333-25.466667 6.8-6.266667 16.266667-18.533333 18.4-23.733333 0.8-1.866667 2-4.266667 2.533333-5.333333 4.266667-7.466667 7.066667-14.533333 10.533333-26.666667 6.266667-22.4 6.133333-16.266667 6.933333-187.333333l0.8-161.333333 10-1.466667c5.466667-0.933333 17.466667-2.533333 26.666667-3.866667 9.2-1.2 22.666667-3.066667 30-4 7.333333-1.066667 20.533333-2.8 29.333333-4 8.8-1.2 22-2.933333 29.333333-4 7.333333-1.066667 20.8-2.8 30-4 9.2-1.2 22.666667-2.933333 30-4 26.533333-3.733333 42.933333-5.866667 59.333333-8.133333 9.2-1.2 21.2-2.933333 26.666667-3.866667 5.466667-0.933333 10.4-1.333333 10.933333-0.8 1.2 1.066667 1.466667 278.8 0.4 280-0.4 0.4-3.333333-0.533333-6.4-2.133333-9.733333-4.8-13.2-5.866667-28.266667-8.533333-50.666667-8.666667-91.333333 3.2-114.8 33.6-21.466667 28-23.466667 62.8-5.466667 93.866667 7.333333 12.533333 12.8 18.666667 24.266667 27.333333 17.2 12.933333 32.666667 17.6 59.333333 17.6 35.466667 0.133333 60.133333-8.666667 78.933333-27.866667 16.666667-17.066667 24.266667-32.933333 30.4-63.466667 2.533333-12.666667 2.666667-19.6 2.666667-251.733333 0-131.333333-0.266667-239.333333-0.666667-240-0.533333-0.666667-1.2-1.066667-1.733333-0.933333-0.533333 0-3.066667 0.4-5.6 0.666667z" p-id="1947" fill="#e4e4e4"></path></svg>